<?xml version="1.0" encoding="UTF-8" standalone="no"?>
<!-- Generator: Adobe Illustrator 19.0.0, SVG Export Plug-In . SVG Version: 6.00 Build 0)  -->

<svg
   xmlns:dc="http://purl.org/dc/elements/1.1/"
   xmlns:cc="http://creativecommons.org/ns#"
   xmlns:rdf="http://www.w3.org/1999/02/22-rdf-syntax-ns#"
   xmlns:svg="http://www.w3.org/2000/svg"
   xmlns="http://www.w3.org/2000/svg"
   xmlns:xlink="http://www.w3.org/1999/xlink"
   xmlns:sodipodi="http://sodipodi.sourceforge.net/DTD/sodipodi-0.dtd"
   xmlns:inkscape="http://www.inkscape.org/namespaces/inkscape"
   version="1.1"
   id="Layer_1"
   x="0px"
   y="0px"
   viewBox="0 0 200 200"
   xml:space="preserve"
   inkscape:version="0.91 r13725"
   sodipodi:docname="delete.svg"
   width="200"
   height="200"><metadata
     id="metadata90"><rdf:RDF><cc:Work
         rdf:about=""><dc:format>image/svg+xml</dc:format><dc:type
           rdf:resource="http://purl.org/dc/dcmitype/StillImage" /><dc:title></dc:title></cc:Work></rdf:RDF></metadata><defs
     id="defs88" /><sodipodi:namedview
     pagecolor="#ffffff"
     bordercolor="#666666"
     borderopacity="1"
     objecttolerance="10"
     gridtolerance="10"
     guidetolerance="10"
     inkscape:pageopacity="0"
     inkscape:pageshadow="2"
     inkscape:window-width="1536"
     inkscape:window-height="801"
     id="namedview86"
     showgrid="false"
     inkscape:zoom="0.85736697"
     inkscape:cx="181.63899"
     inkscape:cy="204.73405"
     inkscape:window-x="-8"
     inkscape:window-y="-8"
     inkscape:window-maximized="1"
     inkscape:current-layer="Layer_1" /><style
     type="text/css"
     id="style3">
	.st0{fill:#A6C4FF;}
	.st1{clip-path:url(#deleteBackground_2_);}
	.st2{fill:#2F93ED;}
	.st3{fill:#F78DB8;}
</style><circle
     id="deleteBackground"
     class="st0"
     cx="100"
     cy="100"
     style="fill:#a6c4ff"
     r="100" /><g
     id="XMLID_79_"
     transform="matrix(0.67658997,0,0,0.67658997,-61.705003,-53.58592)"><defs
       id="defs7"><circle
         id="deleteBackground_1_"
         cx="239"
         cy="227"
         r="147.8" /></defs><clipPath
       id="deleteBackground_2_"><use
         xlink:href="#deleteBackground_1_"
         style="overflow:visible"
         id="use11"
         x="0"
         y="0"
         width="100%"
         height="100%" /></clipPath><g
       id="XMLID_3_"
       class="st1"
       clip-path="url(#deleteBackground_2_)"><path
         id="XMLID_9_"
         class="st2"
         d="m 330.9,293.5 -65.8,-65.8 66.5,-66.5 c 4.7,-4.7 4.3,-12.7 -0.3,-17.3 l -9.2,-9.2 c -4.7,-4.7 -12,-4.3 -16.7,0.4 L 239,201.5 172.6,135.1 c -4.7,-4.7 -12,-5.1 -16.7,-0.4 l -9.2,9.2 c -4.7,4.7 -5,12.7 -0.3,17.4 l 66.4,66.4 -65.7,65.7 c -4.7,4.7 -5,12 -0.4,16.7 l 9.2,9.2 c 4.7,4.7 12.7,5 17.3,0.3 l 65.7,-65.7 65.8,65.8 c 4.7,4.7 12.7,4.3 17.3,-0.4 l 9.2,-9.2 c 4.7,-4.7 4.4,-12 -0.3,-16.6 z"
         inkscape:connector-curvature="0"
         style="fill:#2f93ed" /><path
         id="XMLID_78_"
         class="st2"
         d="M 333.8,296.3 268,230.5 334.5,164 c 4.7,-4.7 4.3,-12.7 -0.3,-17.3 l -9.2,-9.2 c -4.7,-4.7 -12,-4.3 -16.7,0.4 L 241.8,204.4 175.4,138 c -4.7,-4.7 -12,-5.1 -16.7,-0.4 l -9.2,9.2 c -4.7,4.7 -5,12.7 -0.3,17.4 l 66.4,66.4 -65.7,65.7 c -4.7,4.7 -5,12 -0.4,16.7 l 9.2,9.2 c 4.7,4.7 12.7,5 17.3,0.3 l 65.7,-65.7 65.8,65.8 c 4.7,4.7 12.7,4.3 17.3,-0.4 L 334,313 c 4.8,-4.7 4.4,-12 -0.2,-16.7 z"
         inkscape:connector-curvature="0"
         style="fill:#2f93ed" /><path
         id="XMLID_77_"
         class="st2"
         d="m 336.6,299.2 -65.8,-65.8 66.5,-66.5 c 4.7,-4.7 4.3,-12.7 -0.3,-17.3 l -9.2,-9.2 c -4.7,-4.7 -12,-4.3 -16.7,0.4 l -66.5,66.5 -66.4,-66.4 c -4.7,-4.7 -12,-5.1 -16.7,-0.4 l -9.2,9.2 c -4.7,4.7 -5,12.7 -0.3,17.4 l 66.4,66.4 -65.7,65.7 c -4.7,4.7 -5,12 -0.4,16.7 l 9.2,9.2 c 4.7,4.7 12.7,5 17.3,0.3 l 65.7,-65.7 65.8,65.8 c 4.7,4.7 12.7,4.3 17.3,-0.4 l 9.2,-9.2 c 4.8,-4.8 4.5,-12.1 -0.2,-16.7 z"
         inkscape:connector-curvature="0"
         style="fill:#2f93ed" /><path
         id="XMLID_76_"
         class="st2"
         d="m 339.5,302 -65.8,-65.8 66.5,-66.5 c 4.7,-4.7 4.3,-12.7 -0.3,-17.3 l -9.2,-9.2 c -4.7,-4.7 -12,-4.3 -16.7,0.4 l -66.5,66.5 -66.4,-66.4 c -4.7,-4.7 -12,-5.1 -16.7,-0.4 l -9.2,9.2 c -4.7,4.7 -5,12.7 -0.3,17.4 l 66.4,66.4 -65.7,65.7 c -4.7,4.7 -5,12 -0.4,16.7 l 9.2,9.2 c 4.7,4.7 12.7,5 17.3,0.3 l 65.7,-65.7 65.8,65.8 c 4.7,4.7 12.7,4.3 17.3,-0.4 l 9.2,-9.2 c 4.8,-4.8 4.4,-12 -0.2,-16.7 z"
         inkscape:connector-curvature="0"
         style="fill:#2f93ed" /><path
         id="XMLID_75_"
         class="st2"
         d="M 342.3,304.8 276.5,239 343,172.5 c 4.7,-4.7 4.3,-12.7 -0.3,-17.3 l -9.2,-9.2 c -4.7,-4.7 -12,-4.3 -16.7,0.4 l -66.5,66.5 -66.4,-66.4 c -4.7,-4.7 -12,-5.1 -16.7,-0.4 l -9.2,9.2 c -4.7,4.7 -5,12.7 -0.3,17.4 l 66.4,66.4 -65.7,65.7 c -4.7,4.7 -5,12 -0.4,16.7 l 9.2,9.2 c 4.7,4.7 12.7,5 17.3,0.3 l 65.7,-65.7 65.8,65.8 c 4.7,4.7 12.7,4.3 17.3,-0.4 l 9.2,-9.2 c 4.8,-4.7 4.5,-12 -0.2,-16.7 z"
         inkscape:connector-curvature="0"
         style="fill:#2f93ed" /><path
         id="XMLID_74_"
         class="st2"
         d="m 345.1,307.7 -65.8,-65.8 66.5,-66.5 c 4.7,-4.7 4.3,-12.7 -0.3,-17.3 l -9.2,-9.2 c -4.7,-4.7 -12,-4.3 -16.7,0.4 l -66.5,66.5 -66.4,-66.4 c -4.7,-4.7 -12,-5.1 -16.7,-0.4 l -9.2,9.2 c -4.7,4.7 -5,12.7 -0.3,17.4 l 66.4,66.4 -65.7,65.7 c -4.7,4.7 -5,12 -0.4,16.7 l 9.2,9.2 c 4.7,4.7 12.7,5 17.3,0.3 L 253,268.2 318.8,334 c 4.7,4.7 12.7,4.3 17.3,-0.4 l 9.2,-9.2 c 4.9,-4.8 4.5,-12.1 -0.2,-16.7 z"
         inkscape:connector-curvature="0"
         style="fill:#2f93ed" /><path
         id="XMLID_73_"
         class="st2"
         d="m 348,310.5 -65.8,-65.8 66.5,-66.5 c 4.7,-4.7 4.3,-12.7 -0.3,-17.3 l -9.2,-9.2 c -4.7,-4.7 -12,-4.3 -16.7,0.4 L 256,218.6 189.6,152.2 c -4.7,-4.7 -12,-5.1 -16.7,-0.4 l -9.2,9.2 c -4.7,4.7 -5,12.7 -0.3,17.4 l 66.4,66.4 -65.7,65.7 c -4.7,4.7 -5,12 -0.4,16.7 l 9.2,9.2 c 4.7,4.7 12.7,5 17.3,0.3 l 65.7,-65.7 65.8,65.8 c 4.7,4.7 12.7,4.3 17.3,-0.4 l 9.2,-9.2 c 4.8,-4.7 4.4,-12 -0.2,-16.7 z"
         inkscape:connector-curvature="0"
         style="fill:#2f93ed" /><path
         id="XMLID_72_"
         class="st2"
         d="M 350.8,313.4 285,247.6 351.5,181.1 c 4.7,-4.7 4.3,-12.7 -0.3,-17.3 l -9.2,-9.2 c -4.7,-4.7 -12,-4.3 -16.7,0.4 L 258.8,221.5 192.5,155 c -4.7,-4.7 -12,-5.1 -16.7,-0.4 l -9.2,9.2 c -4.7,4.7 -5,12.7 -0.3,17.4 l 66.4,66.4 -65.7,65.8 c -4.7,4.7 -5,12 -0.4,16.7 l 9.2,9.2 c 4.7,4.7 12.7,5 17.3,0.3 l 65.7,-65.7 65.8,65.8 c 4.7,4.7 12.7,4.3 17.3,-0.4 l 9.2,-9.2 c 4.7,-4.8 4.4,-12.1 -0.3,-16.7 z"
         inkscape:connector-curvature="0"
         style="fill:#2f93ed" /><path
         id="XMLID_71_"
         class="st2"
         d="m 353.7,316.2 -65.8,-65.8 66.5,-66.5 c 4.7,-4.7 4.3,-12.7 -0.3,-17.3 l -9.2,-9.2 c -4.7,-4.7 -12,-4.3 -16.7,0.4 l -66.5,66.5 -66.4,-66.4 c -4.7,-4.7 -12,-5.1 -16.7,-0.4 l -9.2,9.2 c -4.7,4.7 -5,12.7 -0.3,17.4 l 66.4,66.4 -65.7,65.7 c -4.7,4.7 -5,12 -0.4,16.7 l 9.2,9.2 c 4.7,4.7 12.7,5 17.3,0.3 l 65.7,-65.7 65.8,65.8 c 4.7,4.7 12.7,4.3 17.3,-0.4 l 9.2,-9.2 c 4.8,-4.7 4.4,-12 -0.2,-16.7 z"
         inkscape:connector-curvature="0"
         style="fill:#2f93ed" /><path
         id="XMLID_70_"
         class="st2"
         d="m 356.5,319.1 -65.8,-65.8 66.5,-66.5 c 4.7,-4.7 4.3,-12.7 -0.3,-17.3 l -9.2,-9.2 c -4.7,-4.7 -12,-4.3 -16.7,0.4 l -66.5,66.5 -66.4,-66.4 c -4.7,-4.7 -12,-5.1 -16.7,-0.4 l -9.2,9.2 c -4.7,4.7 -5,12.7 -0.3,17.4 l 66.4,66.4 -65.6,65.6 c -4.7,4.7 -5,12 -0.4,16.7 l 9.2,9.2 c 4.7,4.7 12.7,5 17.3,0.3 l 65.7,-65.7 65.8,65.8 c 4.7,4.7 12.7,4.3 17.3,-0.4 l 9.2,-9.2 c 4.7,-4.7 4.4,-12 -0.3,-16.6 z"
         inkscape:connector-curvature="0"
         style="fill:#2f93ed" /><path
         id="XMLID_69_"
         class="st2"
         d="m 359.4,321.9 -65.8,-65.8 66.5,-66.5 c 4.7,-4.7 4.3,-12.7 -0.3,-17.3 l -9.2,-9.2 c -4.7,-4.7 -12,-4.3 -16.7,0.4 L 267.4,230 201,163.5 c -4.7,-4.7 -12,-5.1 -16.7,-0.4 l -9.2,9.2 c -4.7,4.7 -5,12.7 -0.3,17.4 l 66.4,66.4 -65.7,65.7 c -4.7,4.7 -5,12 -0.4,16.7 l 9.2,9.2 c 4.7,4.7 12.7,5 17.3,0.3 l 65.7,-65.7 65.8,65.8 c 4.7,4.7 12.7,4.3 17.3,-0.4 l 9.2,-9.2 c 4.8,-4.7 4.4,-11.9 -0.2,-16.6 z"
         inkscape:connector-curvature="0"
         style="fill:#2f93ed" /><path
         id="XMLID_68_"
         class="st2"
         d="M 362.2,324.7 296.4,259 362.9,192.5 c 4.7,-4.7 4.3,-12.7 -0.3,-17.3 l -9.2,-9.2 c -4.7,-4.7 -12,-4.3 -16.7,0.4 l -66.5,66.5 -66.4,-66.4 c -4.7,-4.7 -12,-5.1 -16.7,-0.4 l -9.2,9.2 c -4.7,4.7 -5,12.7 -0.3,17.4 l 66.4,66.4 -65.7,65.7 c -4.7,4.7 -5,12 -0.4,16.7 l 9.2,9.2 c 4.7,4.7 12.7,5 17.3,0.3 l 65.7,-65.7 65.8,65.8 c 4.7,4.7 12.7,4.3 17.3,-0.4 l 9.2,-9.2 c 4.8,-4.8 4.5,-12.1 -0.2,-16.8 z"
         inkscape:connector-curvature="0"
         style="fill:#2f93ed" /><path
         id="XMLID_67_"
         class="st2"
         d="m 365,327.6 -65.8,-65.8 66.5,-66.5 c 4.7,-4.7 4.3,-12.7 -0.3,-17.3 l -9.2,-9.2 c -4.7,-4.7 -12,-4.3 -16.7,0.4 L 273,235.7 206.6,169.3 c -4.7,-4.7 -12,-5.1 -16.7,-0.4 l -9.2,9.2 c -4.7,4.7 -5,12.7 -0.3,17.4 l 66.4,66.4 -65.7,65.7 c -4.7,4.7 -5,12 -0.4,16.7 l 9.2,9.2 c 4.7,4.7 12.7,5 17.3,0.3 l 65.7,-65.7 65.8,65.8 c 4.7,4.7 12.7,4.3 17.3,-0.4 l 9.2,-9.2 c 4.9,-4.8 4.5,-12.1 -0.2,-16.7 z"
         inkscape:connector-curvature="0"
         style="fill:#2f93ed" /><path
         id="XMLID_66_"
         class="st2"
         d="m 367.9,330.4 -65.8,-65.8 66.5,-66.5 c 4.7,-4.7 4.3,-12.7 -0.3,-17.3 l -9.2,-9.2 c -4.7,-4.7 -12,-4.3 -16.7,0.4 L 276,238.5 209.6,172.1 c -4.7,-4.7 -12,-5.1 -16.7,-0.4 l -9.2,9.2 c -4.7,4.7 -5,12.7 -0.3,17.4 l 66.4,66.4 -65.7,65.7 c -4.7,4.7 -5,12 -0.4,16.7 l 9.2,9.2 c 4.7,4.7 12.7,5 17.3,0.3 l 65.7,-65.7 65.8,65.8 c 4.7,4.7 12.7,4.3 17.3,-0.4 l 9.2,-9.2 c 4.7,-4.7 4.3,-12 -0.3,-16.7 z"
         inkscape:connector-curvature="0"
         style="fill:#2f93ed" /><path
         id="XMLID_65_"
         class="st2"
         d="M 370.7,333.3 305,267.5 371.5,201 c 4.7,-4.7 4.3,-12.7 -0.3,-17.3 l -9.2,-9.2 c -4.7,-4.7 -12,-4.3 -16.7,0.4 L 278.8,241.4 212.4,175 c -4.7,-4.7 -12,-5.1 -16.7,-0.4 l -9.2,9.2 c -4.7,4.7 -5,12.7 -0.3,17.4 l 66.4,66.4 -65.7,65.7 c -4.7,4.7 -5,12 -0.4,16.7 l 9.2,9.2 c 4.7,4.7 12.7,5 17.3,0.3 l 65.7,-65.7 65.8,65.8 c 4.7,4.7 12.7,4.3 17.3,-0.4 L 371,350 c 4.7,-4.8 4.4,-12.1 -0.3,-16.7 z"
         inkscape:connector-curvature="0"
         style="fill:#2f93ed" /><path
         id="XMLID_64_"
         class="st2"
         d="m 373.6,336.1 -65.8,-65.8 66.5,-66.5 c 4.7,-4.7 4.3,-12.7 -0.3,-17.3 l -9.2,-9.2 c -4.7,-4.7 -12,-4.3 -16.7,0.4 l -66.5,66.5 -66.4,-66.4 c -4.7,-4.7 -12,-5.1 -16.7,-0.4 l -9.2,9.2 c -4.7,4.7 -5,12.7 -0.3,17.4 l 66.4,66.4 -65.7,65.7 c -4.7,4.7 -5,12 -0.4,16.7 l 9.2,9.2 c 4.7,4.7 12.7,5 17.3,0.3 l 65.7,-65.7 65.8,65.8 c 4.7,4.7 12.7,4.3 17.3,-0.4 l 9.2,-9.2 c 4.8,-4.7 4.4,-12 -0.2,-16.7 z"
         inkscape:connector-curvature="0"
         style="fill:#2f93ed" /><path
         id="XMLID_63_"
         class="st2"
         d="m 376.4,339 -65.8,-65.8 66.5,-66.5 c 4.7,-4.7 4.3,-12.7 -0.3,-17.3 l -9.2,-9.2 c -4.7,-4.7 -12,-4.3 -16.7,0.4 L 284.5,247 218.1,180.6 c -4.7,-4.7 -12,-5.1 -16.7,-0.4 l -9.2,9.2 c -4.7,4.7 -5,12.7 -0.3,17.4 l 66.4,66.4 -65.7,65.7 c -4.7,4.7 -5,12 -0.4,16.7 l 9.2,9.2 c 4.7,4.7 12.7,5 17.3,0.3 l 65.7,-65.7 65.8,65.8 c 4.7,4.7 12.7,4.3 17.3,-0.4 l 9.2,-9.2 c 4.7,-4.7 4.4,-12 -0.3,-16.6 z"
         inkscape:connector-curvature="0"
         style="fill:#2f93ed" /><path
         id="XMLID_62_"
         class="st2"
         d="M 379.3,341.8 313.5,276 380,209.5 c 4.7,-4.7 4.3,-12.7 -0.3,-17.3 l -9.2,-9.2 c -4.7,-4.7 -12,-4.3 -16.7,0.4 l -66.5,66.5 -66.4,-66.4 c -4.7,-4.7 -12,-5.1 -16.7,-0.4 l -9.2,9.2 c -4.7,4.7 -5,12.7 -0.3,17.4 l 66.4,66.4 -65.7,65.7 c -4.7,4.7 -5,12 -0.4,16.7 l 9.2,9.2 c 4.7,4.7 12.7,5 17.3,0.3 l 65.7,-65.7 65.8,65.8 c 4.7,4.7 12.7,4.3 17.3,-0.4 l 9.2,-9.2 c 4.8,-4.8 4.4,-12 -0.2,-16.7 z"
         inkscape:connector-curvature="0"
         style="fill:#2f93ed" /><path
         id="XMLID_61_"
         class="st2"
         d="m 382.1,344.6 -65.8,-65.8 66.5,-66.5 c 4.7,-4.7 4.3,-12.7 -0.3,-17.3 l -9.2,-9.2 c -4.7,-4.7 -12,-4.3 -16.7,0.4 l -66.5,66.5 -66.4,-66.4 c -4.7,-4.7 -12,-5.1 -16.7,-0.4 l -9.2,9.2 c -4.7,4.7 -5,12.7 -0.3,17.4 l 66.4,66.4 -65.7,65.7 c -4.7,4.7 -5,12 -0.4,16.7 l 9.2,9.2 c 4.7,4.7 12.7,5 17.3,0.3 l 65.7,-65.7 65.8,65.8 c 4.7,4.7 12.7,4.3 17.3,-0.4 l 9.2,-9.2 c 4.8,-4.7 4.5,-12 -0.2,-16.7 z"
         inkscape:connector-curvature="0"
         style="fill:#2f93ed" /><path
         id="XMLID_60_"
         class="st2"
         d="m 384.9,347.5 -65.8,-65.8 66.5,-66.5 c 4.7,-4.7 4.3,-12.7 -0.3,-17.3 l -9.2,-9.2 c -4.7,-4.7 -12,-4.3 -16.7,0.4 L 293,255.6 226.6,189.2 c -4.7,-4.7 -12,-5.1 -16.7,-0.4 l -9.2,9.2 c -4.7,4.7 -5,12.7 -0.3,17.4 l 66.4,66.4 -65.7,65.7 c -4.7,4.7 -5,12 -0.4,16.7 l 9.2,9.2 c 4.7,4.7 12.7,5 17.3,0.3 l 65.7,-65.7 65.8,65.8 c 4.7,4.7 12.7,4.3 17.3,-0.4 l 9.2,-9.2 c 4.8,-4.8 4.4,-12.1 -0.3,-16.7 z"
         inkscape:connector-curvature="0"
         style="fill:#2f93ed" /><path
         id="XMLID_59_"
         class="st2"
         d="M 387.8,350.3 322,284.6 388.5,218.1 c 4.7,-4.7 4.3,-12.7 -0.3,-17.3 l -9.2,-9.2 c -4.7,-4.7 -12,-4.3 -16.7,0.4 L 295.8,258.5 229.4,192 c -4.7,-4.7 -12,-5.1 -16.7,-0.4 l -9.2,9.2 c -4.7,4.7 -5,12.7 -0.3,17.4 l 66.4,66.4 -65.6,65.7 c -4.7,4.7 -5,12 -0.4,16.7 l 9.2,9.2 c 4.7,4.7 12.7,5 17.3,0.3 l 65.7,-65.7 65.8,65.8 c 4.7,4.7 12.7,4.3 17.3,-0.4 l 9.2,-9.2 c 4.7,-4.7 4.3,-12 -0.3,-16.7 z"
         inkscape:connector-curvature="0"
         style="fill:#2f93ed" /><path
         id="XMLID_58_"
         class="st2"
         d="m 390.6,353.2 -65.8,-65.8 66.5,-66.5 c 4.7,-4.7 4.3,-12.7 -0.3,-17.3 l -9.2,-9.2 c -4.7,-4.7 -12,-4.3 -16.7,0.4 l -66.5,66.5 -66.4,-66.4 c -4.7,-4.7 -12,-5.1 -16.7,-0.4 l -9.2,9.2 c -4.7,4.7 -5,12.7 -0.3,17.4 l 66.4,66.4 -65.7,65.7 c -4.7,4.7 -5,12 -0.4,16.7 l 9.2,9.2 c 4.7,4.7 12.7,5 17.3,0.3 l 65.7,-65.7 65.8,65.8 c 4.7,4.7 12.7,4.3 17.3,-0.4 l 9.2,-9.2 c 4.8,-4.8 4.5,-12.1 -0.2,-16.7 z"
         inkscape:connector-curvature="0"
         style="fill:#2f93ed" /><path
         id="XMLID_57_"
         class="st2"
         d="m 393.5,356 -65.8,-65.8 66.5,-66.5 c 4.7,-4.7 4.3,-12.7 -0.3,-17.3 l -9.2,-9.2 c -4.7,-4.7 -12,-4.3 -16.7,0.4 l -66.5,66.5 -66.4,-66.4 c -4.7,-4.7 -12,-5.1 -16.7,-0.4 l -9.2,9.2 c -4.7,4.7 -5,12.7 -0.3,17.4 l 66.4,66.4 -65.7,65.7 c -4.7,4.7 -5,12 -0.4,16.7 l 9.2,9.2 c 4.7,4.7 12.7,5 17.3,0.3 l 65.7,-65.7 65.8,65.8 c 4.7,4.7 12.7,4.3 17.3,-0.4 l 9.2,-9.2 c 4.8,-4.7 4.4,-12 -0.2,-16.7 z"
         inkscape:connector-curvature="0"
         style="fill:#2f93ed" /><path
         id="XMLID_56_"
         class="st2"
         d="M 396.3,358.9 330.5,293.1 397,226.6 c 4.7,-4.7 4.3,-12.7 -0.3,-17.3 l -9.2,-9.2 c -4.7,-4.7 -12,-4.3 -16.7,0.4 L 304.3,267 238,200.5 c -4.7,-4.7 -12,-5.1 -16.7,-0.4 l -9.2,9.2 c -4.7,4.7 -5,12.7 -0.3,17.4 l 66.4,66.4 -65.7,65.7 c -4.7,4.7 -5,12 -0.4,16.7 l 9.2,9.2 c 4.7,4.7 12.7,5 17.3,0.3 l 65.7,-65.7 65.8,65.8 c 4.7,4.7 12.7,4.3 17.3,-0.4 l 9.2,-9.2 c 4.7,-4.7 4.4,-12 -0.3,-16.6 z"
         inkscape:connector-curvature="0"
         style="fill:#2f93ed" /><path
         id="XMLID_55_"
         class="st2"
         d="m 399.2,361.7 -65.8,-65.8 66.5,-66.5 c 4.7,-4.7 4.3,-12.7 -0.3,-17.3 l -9.2,-9.2 c -4.7,-4.7 -12,-4.3 -16.7,0.4 l -66.5,66.5 -66.4,-66.4 c -4.7,-4.7 -12,-5.1 -16.7,-0.4 l -9.2,9.2 c -4.7,4.7 -5,12.7 -0.3,17.4 L 281,296 215.3,361.7 c -4.7,4.7 -5,12 -0.4,16.7 l 9.2,9.2 c 4.7,4.7 12.7,5 17.3,0.3 l 65.7,-65.7 65.8,65.8 c 4.7,4.7 12.7,4.3 17.3,-0.4 l 9.2,-9.2 c 4.8,-4.8 4.4,-12 -0.2,-16.7 z"
         inkscape:connector-curvature="0"
         style="fill:#2f93ed" /><path
         id="XMLID_54_"
         class="st2"
         d="m 402,364.5 -65.8,-65.8 66.5,-66.5 c 4.7,-4.7 4.3,-12.7 -0.3,-17.3 l -9.2,-9.2 c -4.7,-4.7 -12,-4.3 -16.7,0.4 L 310,272.6 243.6,206.2 c -4.7,-4.7 -12,-5.1 -16.7,-0.4 l -9.2,9.2 c -4.7,4.7 -5,12.7 -0.3,17.4 l 66.4,66.4 -65.7,65.7 c -4.7,4.7 -5,12 -0.4,16.7 l 9.2,9.2 c 4.7,4.7 12.7,5 17.3,0.3 l 65.7,-65.7 65.8,65.8 c 4.7,4.7 12.7,4.3 17.3,-0.4 l 9.2,-9.2 c 4.8,-4.7 4.5,-12 -0.2,-16.7 z"
         inkscape:connector-curvature="0"
         style="fill:#2f93ed" /><path
         id="XMLID_53_"
         class="st2"
         d="M 404.8,367.4 339,301.6 405.5,235.1 c 4.7,-4.7 4.3,-12.7 -0.3,-17.3 l -9.2,-9.2 c -4.7,-4.7 -12,-4.3 -16.7,0.4 L 312.8,275.5 246.5,209 c -4.7,-4.7 -12,-5.1 -16.7,-0.4 l -9.2,9.2 c -4.7,4.7 -5,12.7 -0.3,17.4 l 66.4,66.4 -65.7,65.8 c -4.7,4.7 -5,12 -0.4,16.7 l 9.2,9.2 c 4.7,4.7 12.7,5 17.3,0.3 l 65.7,-65.7 65.8,65.8 c 4.7,4.7 12.7,4.3 17.3,-0.4 l 9.2,-9.2 c 4.8,-4.8 4.4,-12.1 -0.3,-16.7 z"
         inkscape:connector-curvature="0"
         style="fill:#2f93ed" /><path
         id="XMLID_52_"
         class="st2"
         d="m 407.7,370.2 -65.8,-65.8 66.5,-66.5 c 4.7,-4.7 4.3,-12.7 -0.3,-17.3 l -9.2,-9.2 c -4.7,-4.7 -12,-4.3 -16.7,0.4 l -66.5,66.5 -66.4,-66.4 c -4.7,-4.7 -12,-5.1 -16.7,-0.4 l -9.2,9.2 c -4.7,4.7 -5,12.7 -0.3,17.4 l 66.4,66.4 -65.7,65.7 c -4.7,4.7 -5,12 -0.4,16.7 l 9.2,9.2 c 4.7,4.7 12.7,5 17.3,0.3 l 65.7,-65.7 65.8,65.8 c 4.7,4.7 12.7,4.3 17.3,-0.4 l 9.2,-9.2 c 4.8,-4.7 4.4,-12 -0.2,-16.7 z"
         inkscape:connector-curvature="0"
         style="fill:#2f93ed" /><path
         id="XMLID_51_"
         class="st2"
         d="m 410.5,373.1 -65.8,-65.8 66.5,-66.5 c 4.7,-4.7 4.3,-12.7 -0.3,-17.3 l -9.2,-9.2 c -4.7,-4.7 -12,-4.3 -16.7,0.4 l -66.5,66.5 -66.4,-66.4 c -4.7,-4.7 -12,-5.1 -16.7,-0.4 l -9.2,9.2 c -4.7,4.7 -5,12.7 -0.3,17.4 l 66.4,66.4 -65.7,65.7 c -4.7,4.7 -5,12 -0.4,16.7 l 9.2,9.2 c 4.7,4.7 12.7,5 17.3,0.3 l 65.7,-65.7 65.8,65.8 c 4.7,4.7 12.7,4.3 17.3,-0.4 l 9.2,-9.2 c 4.8,-4.8 4.5,-12.1 -0.2,-16.7 z"
         inkscape:connector-curvature="0"
         style="fill:#2f93ed" /><path
         id="XMLID_50_"
         class="st2"
         d="m 413.4,375.9 -65.8,-65.8 66.5,-66.5 c 4.7,-4.7 4.3,-12.7 -0.3,-17.3 l -9.2,-9.2 c -4.7,-4.7 -12,-4.3 -16.7,0.4 L 321.4,284 255,217.6 c -4.7,-4.7 -12,-5.1 -16.7,-0.4 l -9.2,9.2 c -4.7,4.7 -5,12.7 -0.3,17.4 l 66.4,66.4 -65.7,65.7 c -4.7,4.7 -5,12 -0.4,16.7 l 9.2,9.2 c 4.7,4.7 12.7,5 17.3,0.3 l 65.7,-65.7 65.8,65.8 c 4.7,4.7 12.7,4.3 17.3,-0.4 l 9.2,-9.2 c 4.8,-4.7 4.4,-12 -0.2,-16.7 z"
         inkscape:connector-curvature="0"
         style="fill:#2f93ed" /><path
         id="XMLID_49_"
         class="st2"
         d="M 416.2,378.8 350.4,313 416.9,246.5 c 4.7,-4.7 4.3,-12.7 -0.3,-17.3 l -9.2,-9.2 c -4.7,-4.7 -12,-4.3 -16.7,0.4 l -66.5,66.5 -66.4,-66.4 c -4.7,-4.7 -12,-5.1 -16.7,-0.4 l -9.2,9.2 c -4.7,4.7 -5,12.7 -0.3,17.4 l 66.4,66.4 -65.7,65.7 c -4.7,4.7 -5,12 -0.4,16.7 l 9.2,9.2 c 4.7,4.7 12.7,5 17.3,0.3 l 65.7,-65.7 65.8,65.8 c 4.7,4.7 12.7,4.3 17.3,-0.4 l 9.2,-9.2 c 4.8,-4.8 4.5,-12.1 -0.2,-16.7 z"
         inkscape:connector-curvature="0"
         style="fill:#2f93ed" /><path
         id="XMLID_48_"
         class="st2"
         d="m 419.1,381.6 -65.8,-65.8 66.5,-66.5 c 4.7,-4.7 4.3,-12.7 -0.3,-17.3 l -9.2,-9.2 c -4.7,-4.7 -12,-4.3 -16.7,0.4 l -66.5,66.5 -66.4,-66.4 c -4.7,-4.7 -12,-5.1 -16.7,-0.4 l -9.2,9.2 c -4.7,4.7 -5,12.7 -0.3,17.4 l 66.4,66.4 -65.7,65.7 c -4.7,4.7 -5,12 -0.4,16.7 l 9.2,9.2 c 4.7,4.7 12.7,5 17.3,0.3 l 65.7,-65.7 65.8,65.8 c 4.7,4.7 12.7,4.3 17.3,-0.4 l 9.2,-9.2 c 4.8,-4.8 4.4,-12 -0.2,-16.7 z"
         inkscape:connector-curvature="0"
         style="fill:#2f93ed" /><path
         id="XMLID_47_"
         class="st2"
         d="m 421.9,384.4 -65.8,-65.8 66.5,-66.5 c 4.7,-4.7 4.3,-12.7 -0.3,-17.3 l -9.2,-9.2 c -4.7,-4.7 -12,-4.3 -16.7,0.4 L 330,292.5 263.6,226.1 c -4.7,-4.7 -12,-5.1 -16.7,-0.4 l -9.2,9.2 c -4.7,4.7 -5,12.7 -0.3,17.4 l 66.4,66.4 -65.7,65.7 c -4.7,4.7 -5,12 -0.4,16.7 l 9.2,9.2 c 4.7,4.7 12.7,5 17.3,0.3 l 65.7,-65.7 65.8,65.8 c 4.7,4.7 12.7,4.3 17.3,-0.4 l 9.2,-9.2 c 4.7,-4.7 4.4,-12 -0.3,-16.7 z"
         inkscape:connector-curvature="0"
         style="fill:#2f93ed" /><path
         id="XMLID_46_"
         class="st2"
         d="M 424.7,387.3 359,321.5 425.5,255 c 4.7,-4.7 4.3,-12.7 -0.3,-17.3 l -9.2,-9.2 c -4.7,-4.7 -12,-4.3 -16.7,0.4 L 332.8,295.4 266.4,229 c -4.7,-4.7 -12,-5.1 -16.7,-0.4 l -9.2,9.2 c -4.7,4.7 -5,12.7 -0.3,17.4 l 66.4,66.4 -65.7,65.7 c -4.7,4.7 -5,12 -0.4,16.7 l 9.2,9.2 c 4.7,4.7 12.7,5 17.3,0.3 l 65.7,-65.7 65.8,65.8 c 4.7,4.7 12.7,4.3 17.3,-0.4 L 425,404 c 4.8,-4.8 4.4,-12.1 -0.3,-16.7 z"
         inkscape:connector-curvature="0"
         style="fill:#2f93ed" /><path
         id="XMLID_45_"
         class="st2"
         d="m 427.6,390.1 -65.8,-65.8 66.5,-66.5 c 4.7,-4.7 4.3,-12.7 -0.3,-17.3 l -9.2,-9.2 c -4.7,-4.7 -12,-4.3 -16.7,0.4 l -66.5,66.5 -66.4,-66.4 c -4.7,-4.7 -12,-5.1 -16.7,-0.4 l -9.2,9.2 c -4.7,4.7 -5,12.7 -0.3,17.4 l 66.4,66.4 -65.7,65.7 c -4.7,4.7 -5,12 -0.4,16.7 l 9.2,9.2 c 4.7,4.7 12.7,5 17.3,0.3 l 65.7,-65.7 65.8,65.8 c 4.7,4.7 12.7,4.3 17.3,-0.4 l 9.2,-9.2 c 4.8,-4.7 4.4,-12 -0.2,-16.7 z"
         inkscape:connector-curvature="0"
         style="fill:#2f93ed" /><path
         id="XMLID_44_"
         class="st2"
         d="m 430.4,393 -65.8,-65.8 66.5,-66.5 c 4.7,-4.7 4.3,-12.7 -0.3,-17.3 l -9.2,-9.2 c -4.7,-4.7 -12,-4.3 -16.7,0.4 L 338.5,301 272.1,234.6 c -4.7,-4.7 -12,-5.1 -16.7,-0.4 l -9.2,9.2 c -4.7,4.7 -5,12.7 -0.3,17.4 l 66.4,66.4 -65.7,65.8 c -4.7,4.7 -5,12 -0.4,16.7 l 9.2,9.2 c 4.7,4.7 12.7,5 17.3,0.3 l 65.7,-65.7 65.8,65.8 c 4.7,4.7 12.7,4.3 17.3,-0.4 l 9.2,-9.2 c 4.7,-4.8 4.4,-12.1 -0.3,-16.7 z"
         inkscape:connector-curvature="0"
         style="fill:#2f93ed" /><path
         id="XMLID_43_"
         class="st2"
         d="M 433.3,395.8 367.5,330 434,263.5 c 4.7,-4.7 4.3,-12.7 -0.3,-17.3 l -9.2,-9.2 c -4.7,-4.7 -12,-4.3 -16.7,0.4 l -66.5,66.5 -66.4,-66.4 c -4.7,-4.7 -12,-5.1 -16.7,-0.4 l -9.2,9.2 c -4.7,4.7 -5,12.7 -0.3,17.4 l 66.4,66.4 -65.7,65.7 c -4.7,4.7 -5,12 -0.4,16.7 l 9.2,9.2 c 4.7,4.7 12.7,5 17.3,0.3 l 65.7,-65.7 65.8,65.8 c 4.7,4.7 12.7,4.3 17.3,-0.4 l 9.2,-9.2 c 4.8,-4.7 4.4,-12 -0.2,-16.7 z"
         inkscape:connector-curvature="0"
         style="fill:#2f93ed" /><path
         id="XMLID_42_"
         class="st2"
         d="m 436.1,398.7 -65.8,-65.8 66.5,-66.5 c 4.7,-4.7 4.3,-12.7 -0.3,-17.3 l -9.2,-9.2 c -4.7,-4.7 -12,-4.3 -16.7,0.4 l -66.5,66.5 -66.4,-66.4 c -4.7,-4.7 -12,-5.1 -16.7,-0.4 l -9.2,9.2 c -4.7,4.7 -5,12.7 -0.3,17.4 l 66.4,66.4 -65.7,65.7 c -4.7,4.7 -5,12 -0.4,16.7 l 9.2,9.2 c 4.7,4.7 12.7,5 17.3,0.3 L 344,359.2 409.8,425 c 4.7,4.7 12.7,4.3 17.3,-0.4 l 9.2,-9.2 c 4.8,-4.8 4.5,-12.1 -0.2,-16.7 z"
         inkscape:connector-curvature="0"
         style="fill:#2f93ed" /><path
         id="XMLID_41_"
         class="st2"
         d="m 439,401.5 -65.8,-65.8 66.5,-66.5 c 4.7,-4.7 4.3,-12.7 -0.3,-17.3 l -9.2,-9.2 c -4.7,-4.7 -12,-4.3 -16.7,0.4 L 347,309.6 280.6,243.2 c -4.7,-4.7 -12,-5.1 -16.7,-0.4 l -9.2,9.2 c -4.7,4.7 -5,12.7 -0.3,17.4 l 66.4,66.4 -65.7,65.7 c -4.7,4.7 -5,12 -0.4,16.7 l 9.2,9.2 c 4.7,4.7 12.7,5 17.3,0.3 l 65.7,-65.7 65.8,65.8 c 4.7,4.7 12.7,4.3 17.3,-0.4 l 9.2,-9.2 c 4.8,-4.8 4.4,-12 -0.2,-16.7 z"
         inkscape:connector-curvature="0"
         style="fill:#2f93ed" /><path
         id="XMLID_40_"
         class="st2"
         d="M 441.8,404.3 376,338.6 442.5,272.1 c 4.7,-4.7 4.3,-12.7 -0.3,-17.3 l -9.2,-9.2 c -4.7,-4.7 -12,-4.3 -16.7,0.4 L 349.8,312.5 283.4,246 c -4.7,-4.7 -12,-5.1 -16.7,-0.4 l -9.2,9.2 c -4.7,4.7 -5,12.7 -0.3,17.4 l 66.4,66.4 -65.6,65.7 c -4.7,4.7 -5,12 -0.4,16.7 l 9.2,9.2 c 4.7,4.7 12.7,5 17.3,0.3 l 65.7,-65.7 65.8,65.8 c 4.7,4.7 12.7,4.3 17.3,-0.4 l 9.2,-9.2 c 4.7,-4.7 4.4,-12 -0.3,-16.7 z"
         inkscape:connector-curvature="0"
         style="fill:#2f93ed" /><path
         id="XMLID_39_"
         class="st2"
         d="m 444.6,407.2 -65.8,-65.8 66.5,-66.5 c 4.7,-4.7 4.3,-12.7 -0.3,-17.3 l -9.2,-9.2 c -4.7,-4.7 -12,-4.3 -16.7,0.4 l -66.5,66.5 -66.4,-66.4 c -4.7,-4.7 -12,-5.1 -16.7,-0.4 l -9.2,9.2 c -4.7,4.7 -5,12.7 -0.3,17.4 l 66.4,66.4 -65.7,65.7 c -4.7,4.7 -5,12 -0.4,16.7 l 9.2,9.2 c 4.7,4.7 12.7,5 17.3,0.3 l 65.7,-65.7 65.8,65.8 c 4.7,4.7 12.7,4.3 17.3,-0.4 l 9.2,-9.2 c 4.9,-4.8 4.5,-12.1 -0.2,-16.7 z"
         inkscape:connector-curvature="0"
         style="fill:#2f93ed" /><path
         id="XMLID_38_"
         class="st2"
         d="m 447.5,410 -65.8,-65.8 66.5,-66.5 c 4.7,-4.7 4.3,-12.7 -0.3,-17.3 l -9.2,-9.2 c -4.7,-4.7 -12,-4.3 -16.7,0.4 l -66.5,66.5 -66.4,-66.4 c -4.7,-4.7 -12,-5.1 -16.7,-0.4 l -9.2,9.2 c -4.7,4.7 -5,12.7 -0.3,17.4 l 66.4,66.4 -65.6,65.7 c -4.7,4.7 -5,12 -0.4,16.7 l 9.2,9.2 c 4.7,4.7 12.7,5 17.3,0.3 l 65.7,-65.7 65.8,65.8 c 4.7,4.7 12.7,4.3 17.3,-0.4 l 9.2,-9.2 c 4.7,-4.7 4.3,-12 -0.3,-16.7 z"
         inkscape:connector-curvature="0"
         style="fill:#2f93ed" /><path
         id="XMLID_37_"
         class="st2"
         d="M 450.3,412.9 384.5,347.1 451,280.6 c 4.7,-4.7 4.3,-12.7 -0.3,-17.3 l -9.2,-9.2 c -4.7,-4.7 -12,-4.3 -16.7,0.4 L 358.3,321 292,254.5 c -4.7,-4.7 -12,-5.1 -16.7,-0.4 l -9.2,9.2 c -4.7,4.7 -5,12.7 -0.3,17.4 l 66.4,66.4 -65.7,65.7 c -4.7,4.7 -5,12 -0.4,16.7 l 9.2,9.2 c 4.7,4.7 12.7,5 17.3,0.3 l 65.7,-65.7 65.8,65.8 c 4.7,4.7 12.7,4.3 17.3,-0.4 l 9.2,-9.2 c 4.7,-4.7 4.4,-12 -0.3,-16.6 z"
         inkscape:connector-curvature="0"
         style="fill:#2f93ed" /><path
         id="XMLID_36_"
         class="st2"
         d="m 453.2,415.7 -65.8,-65.8 66.5,-66.5 c 4.7,-4.7 4.3,-12.7 -0.3,-17.3 l -9.2,-9.2 c -4.7,-4.7 -12,-4.3 -16.7,0.4 l -66.5,66.5 -66.4,-66.4 c -4.7,-4.7 -12,-5.1 -16.7,-0.4 l -9.2,9.2 c -4.7,4.7 -5,12.7 -0.3,17.4 L 335,350 269.3,415.7 c -4.7,4.7 -5,12 -0.4,16.7 l 9.2,9.2 c 4.7,4.7 12.7,5 17.3,0.3 l 65.7,-65.7 65.8,65.8 c 4.7,4.7 12.7,4.3 17.3,-0.4 l 9.2,-9.2 c 4.8,-4.7 4.4,-12 -0.2,-16.7 z"
         inkscape:connector-curvature="0"
         style="fill:#2f93ed" /><path
         id="XMLID_35_"
         class="st2"
         d="m 456,418.6 -65.8,-65.8 66.5,-66.5 c 4.7,-4.7 4.3,-12.7 -0.3,-17.3 l -9.2,-9.2 c -4.7,-4.7 -12,-4.3 -16.7,0.4 L 364,326.7 297.6,260.3 c -4.7,-4.7 -12,-5.1 -16.7,-0.4 l -9.2,9.2 c -4.7,4.7 -5,12.7 -0.3,17.4 l 66.4,66.4 -65.7,65.7 c -4.7,4.7 -5,12 -0.4,16.7 l 9.2,9.2 c 4.7,4.7 12.7,5 17.3,0.3 l 65.7,-65.7 65.8,65.8 c 4.7,4.7 12.7,4.3 17.3,-0.4 l 9.2,-9.2 c 4.8,-4.8 4.5,-12.1 -0.2,-16.7 z"
         inkscape:connector-curvature="0"
         style="fill:#2f93ed" /><path
         id="XMLID_34_"
         class="st2"
         d="m 458.9,421.4 -65.8,-65.8 66.5,-66.5 c 4.7,-4.7 4.3,-12.7 -0.3,-17.3 l -9.2,-9.2 c -4.7,-4.7 -12,-4.3 -16.7,0.4 L 366.9,329.5 300.5,263 c -4.7,-4.7 -12,-5.1 -16.7,-0.4 l -9.2,9.2 c -4.7,4.7 -5,12.7 -0.3,17.4 l 66.4,66.4 -65.7,65.8 c -4.7,4.7 -5,12 -0.4,16.7 l 9.2,9.2 c 4.7,4.7 12.7,5 17.3,0.3 l 65.7,-65.7 65.8,65.8 c 4.7,4.7 12.7,4.3 17.3,-0.4 l 9.2,-9.2 c 4.8,-4.8 4.4,-12 -0.2,-16.7 z"
         inkscape:connector-curvature="0"
         style="fill:#2f93ed" /><path
         id="XMLID_33_"
         class="st2"
         d="m 461.7,424.2 -65.8,-65.8 66.5,-66.5 c 4.7,-4.7 4.3,-12.7 -0.3,-17.3 l -9.2,-9.2 c -4.7,-4.7 -12,-4.3 -16.7,0.4 l -66.5,66.5 -66.4,-66.4 c -4.7,-4.7 -12,-5.1 -16.7,-0.4 l -9.2,9.2 c -4.7,4.7 -5,12.7 -0.3,17.4 l 66.4,66.4 -65.7,65.7 c -4.7,4.7 -5,12 -0.4,16.7 l 9.2,9.2 c 4.7,4.7 12.7,5 17.3,0.3 l 65.7,-65.7 65.8,65.8 c 4.7,4.7 12.7,4.3 17.3,-0.4 l 9.2,-9.2 c 4.8,-4.7 4.5,-12 -0.2,-16.7 z"
         inkscape:connector-curvature="0"
         style="fill:#2f93ed" /><path
         id="XMLID_32_"
         class="st2"
         d="m 464.5,427.1 -65.8,-65.8 66.5,-66.5 c 4.7,-4.7 4.3,-12.7 -0.3,-17.3 l -9.2,-9.2 c -4.7,-4.7 -12,-4.3 -16.7,0.4 l -66.5,66.5 -66.4,-66.4 c -4.7,-4.7 -12,-5.1 -16.7,-0.4 l -9.2,9.2 c -4.7,4.7 -5,12.7 -0.3,17.4 l 66.4,66.4 -65.7,65.7 c -4.7,4.7 -5,12 -0.4,16.7 l 9.2,9.2 c 4.7,4.7 12.7,5 17.3,0.3 l 65.7,-65.7 65.8,65.8 c 4.7,4.7 12.7,4.3 17.3,-0.4 l 9.2,-9.2 c 4.9,-4.8 4.5,-12.1 -0.2,-16.7 z"
         inkscape:connector-curvature="0"
         style="fill:#2f93ed" /><path
         id="XMLID_31_"
         class="st2"
         d="m 467.4,429.9 -65.8,-65.8 66.5,-66.5 c 4.7,-4.7 4.3,-12.7 -0.3,-17.3 l -9.2,-9.2 c -4.7,-4.7 -12,-4.3 -16.7,0.4 L 375.5,338 309,271.6 c -4.7,-4.7 -12,-5.1 -16.7,-0.4 l -9.2,9.2 c -4.7,4.7 -5,12.7 -0.3,17.4 l 66.4,66.4 -65.7,65.7 c -4.7,4.7 -5,12 -0.4,16.7 l 9.2,9.2 c 4.7,4.7 12.7,5 17.3,0.3 l 65.7,-65.7 65.8,65.8 c 4.7,4.7 12.7,4.3 17.3,-0.4 l 9.2,-9.2 c 4.8,-4.7 4.4,-12 -0.2,-16.7 z"
         inkscape:connector-curvature="0"
         style="fill:#2f93ed" /><path
         id="XMLID_30_"
         class="st2"
         d="M 470.2,432.8 404.5,367 471,300.5 c 4.7,-4.7 4.3,-12.7 -0.3,-17.3 l -9.2,-9.2 c -4.7,-4.7 -12,-4.3 -16.7,0.4 l -66.5,66.5 -66.4,-66.4 c -4.7,-4.7 -12,-5.1 -16.7,-0.4 l -9.2,9.2 c -4.7,4.7 -5,12.7 -0.3,17.4 l 66.4,66.4 -65.7,65.7 c -4.7,4.7 -5,12 -0.4,16.7 l 9.2,9.2 c 4.7,4.7 12.7,5 17.3,0.3 l 65.7,-65.7 65.8,65.8 c 4.7,4.7 12.7,4.3 17.3,-0.4 l 9.2,-9.2 c 4.7,-4.8 4.4,-12.1 -0.3,-16.7 z"
         inkscape:connector-curvature="0"
         style="fill:#2f93ed" /><path
         id="XMLID_29_"
         class="st2"
         d="m 473.1,435.6 -65.8,-65.8 66.5,-66.5 c 4.7,-4.7 4.3,-12.7 -0.3,-17.3 l -9.2,-9.2 c -4.7,-4.7 -12,-4.3 -16.7,0.4 l -66.5,66.5 -66.4,-66.4 c -4.7,-4.7 -12,-5.1 -16.7,-0.4 l -9.2,9.2 c -4.7,4.7 -5,12.7 -0.3,17.4 l 66.4,66.4 -65.7,65.7 c -4.7,4.7 -5,12 -0.4,16.7 l 9.2,9.2 c 4.7,4.7 12.7,5 17.3,0.3 l 65.7,-65.7 65.8,65.8 c 4.7,4.7 12.7,4.3 17.3,-0.4 l 9.2,-9.2 c 4.8,-4.7 4.4,-12 -0.2,-16.7 z"
         inkscape:connector-curvature="0"
         style="fill:#2f93ed" /><path
         id="XMLID_28_"
         class="st2"
         d="m 475.9,438.5 -65.8,-65.8 66.5,-66.5 c 4.7,-4.7 4.3,-12.7 -0.3,-17.3 l -9.2,-9.2 c -4.7,-4.7 -12,-4.3 -16.7,0.4 L 384,346.5 317.6,280.1 c -4.7,-4.7 -12,-5.1 -16.7,-0.4 l -9.2,9.2 c -4.7,4.7 -5,12.7 -0.3,17.4 l 66.4,66.4 -65.7,65.7 c -4.7,4.7 -5,12 -0.4,16.7 l 9.2,9.2 c 4.7,4.7 12.7,5 17.3,0.3 l 65.7,-65.7 65.8,65.8 c 4.7,4.7 12.7,4.3 17.3,-0.4 l 9.2,-9.2 c 4.7,-4.7 4.4,-12 -0.3,-16.6 z"
         inkscape:connector-curvature="0"
         style="fill:#2f93ed" /><path
         id="XMLID_27_"
         class="st2"
         d="M 478.8,441.3 413,375.5 479.5,309 c 4.7,-4.7 4.3,-12.7 -0.3,-17.3 l -9.2,-9.2 c -4.7,-4.7 -12,-4.3 -16.7,0.4 L 386.8,349.4 320.4,283 c -4.7,-4.7 -12,-5.1 -16.7,-0.4 l -9.2,9.2 c -4.7,4.7 -5,12.7 -0.3,17.4 l 66.4,66.4 -65.7,65.7 c -4.7,4.7 -5,12 -0.4,16.7 l 9.2,9.2 c 4.7,4.7 12.7,5 17.3,0.3 l 65.7,-65.7 65.8,65.8 c 4.7,4.7 12.7,4.3 17.3,-0.4 L 479,458 c 4.8,-4.8 4.4,-12 -0.2,-16.7 z"
         inkscape:connector-curvature="0"
         style="fill:#2f93ed" /><path
         id="XMLID_26_"
         class="st2"
         d="m 481.6,444.1 -65.8,-65.8 66.5,-66.5 c 4.7,-4.7 4.3,-12.7 -0.3,-17.3 l -9.2,-9.2 c -4.7,-4.7 -12,-4.3 -16.7,0.4 l -66.5,66.5 -66.4,-66.4 c -4.7,-4.7 -12,-5.1 -16.7,-0.4 l -9.2,9.2 c -4.7,4.7 -5,12.7 -0.3,17.4 l 66.4,66.4 -65.7,65.7 c -4.7,4.7 -5,12 -0.4,16.7 l 9.2,9.2 c 4.7,4.7 12.7,5 17.3,0.3 l 65.7,-65.7 65.8,65.8 c 4.7,4.7 12.7,4.3 17.3,-0.4 l 9.2,-9.2 c 4.8,-4.7 4.5,-12 -0.2,-16.7 z"
         inkscape:connector-curvature="0"
         style="fill:#2f93ed" /><path
         id="XMLID_25_"
         class="st2"
         d="m 484.4,447 -65.8,-65.8 66.5,-66.5 c 4.7,-4.7 4.3,-12.7 -0.3,-17.3 l -9.2,-9.2 c -4.7,-4.7 -12,-4.3 -16.7,0.4 L 392.4,355.1 326,288.7 c -4.7,-4.7 -12,-5.1 -16.7,-0.4 l -9.2,9.2 c -4.7,4.7 -5,12.7 -0.3,17.4 l 66.4,66.4 -65.6,65.7 c -4.7,4.7 -5,12 -0.4,16.7 l 9.2,9.2 c 4.7,4.7 12.7,5 17.3,0.3 l 65.7,-65.7 65.8,65.8 c 4.7,4.7 12.7,4.3 17.3,-0.4 l 9.2,-9.2 c 4.8,-4.8 4.4,-12.1 -0.3,-16.7 z"
         inkscape:connector-curvature="0"
         style="fill:#2f93ed" /><path
         id="XMLID_24_"
         class="st2"
         d="M 487.3,449.8 421.5,384 488,317.5 c 4.7,-4.7 4.3,-12.7 -0.3,-17.3 l -9.2,-9.2 c -4.7,-4.7 -12,-4.3 -16.7,0.4 l -66.5,66.5 -66.4,-66.4 c -4.7,-4.7 -12,-5.1 -16.7,-0.4 l -9.2,9.2 c -4.7,4.7 -5,12.7 -0.3,17.4 l 66.4,66.4 -65.7,65.7 c -4.7,4.7 -5,12 -0.4,16.7 l 9.2,9.2 c 4.7,4.7 12.7,5 17.3,0.3 l 65.7,-65.7 65.8,65.8 c 4.7,4.7 12.7,4.3 17.3,-0.4 l 9.2,-9.2 c 4.8,-4.7 4.4,-12 -0.2,-16.7 z"
         inkscape:connector-curvature="0"
         style="fill:#2f93ed" /><path
         id="XMLID_23_"
         class="st2"
         d="m 490.1,452.7 -65.8,-65.8 66.5,-66.5 c 4.7,-4.7 4.3,-12.7 -0.3,-17.3 l -9.2,-9.2 c -4.7,-4.7 -12,-4.3 -16.7,0.4 l -66.5,66.5 -66.4,-66.4 c -4.7,-4.7 -12,-5.1 -16.7,-0.4 l -9.2,9.2 c -4.7,4.7 -5,12.7 -0.3,17.4 l 66.4,66.4 -65.7,65.7 c -4.7,4.7 -5,12 -0.4,16.7 l 9.2,9.2 c 4.7,4.7 12.7,5 17.3,0.3 L 398,413.2 463.8,479 c 4.7,4.7 12.7,4.3 17.3,-0.4 l 9.2,-9.2 c 4.8,-4.8 4.5,-12.1 -0.2,-16.7 z"
         inkscape:connector-curvature="0"
         style="fill:#2f93ed" /><path
         id="XMLID_22_"
         class="st2"
         d="m 493,455.5 -65.8,-65.8 66.5,-66.5 c 4.7,-4.7 4.3,-12.7 -0.3,-17.3 l -9.2,-9.2 c -4.7,-4.7 -12,-4.3 -16.7,0.4 L 401,363.6 334.6,297.2 c -4.7,-4.7 -12,-5.1 -16.7,-0.4 l -9.2,9.2 c -4.7,4.7 -5,12.7 -0.3,17.4 l 66.4,66.4 -65.7,65.7 c -4.7,4.7 -5,12 -0.4,16.7 l 9.2,9.2 c 4.7,4.7 12.7,5 17.3,0.3 l 65.7,-65.7 65.8,65.8 c 4.7,4.7 12.7,4.3 17.3,-0.4 l 9.2,-9.2 c 4.8,-4.7 4.4,-12 -0.2,-16.7 z"
         inkscape:connector-curvature="0"
         style="fill:#2f93ed" /><path
         id="XMLID_21_"
         class="st2"
         d="M 495.8,458.4 430,392.6 496.5,326.1 c 4.7,-4.7 4.3,-12.7 -0.3,-17.3 l -9.2,-9.2 c -4.7,-4.7 -12,-4.3 -16.7,0.4 L 403.8,366.5 337.5,300 c -4.7,-4.7 -12,-5.1 -16.7,-0.4 l -9.2,9.2 c -4.7,4.7 -5,12.7 -0.3,17.4 l 66.4,66.4 -65.7,65.7 c -4.7,4.7 -5,12 -0.4,16.7 l 9.2,9.2 c 4.7,4.7 12.7,5 17.3,0.3 l 65.7,-65.7 65.8,65.8 c 4.7,4.7 12.7,4.3 17.3,-0.4 l 9.2,-9.2 c 4.7,-4.7 4.4,-12 -0.3,-16.6 z"
         inkscape:connector-curvature="0"
         style="fill:#2f93ed" /><path
         id="XMLID_20_"
         class="st2"
         d="m 498.7,461.2 -65.8,-65.8 66.5,-66.5 c 4.7,-4.7 4.3,-12.7 -0.3,-17.3 l -9.2,-9.2 c -4.7,-4.7 -12,-4.3 -16.7,0.4 l -66.5,66.5 -66.4,-66.4 c -4.7,-4.7 -12,-5.1 -16.7,-0.4 l -9.2,9.2 c -4.7,4.7 -5,12.7 -0.3,17.4 l 66.4,66.4 -65.7,65.7 c -4.7,4.7 -5,12 -0.4,16.7 l 9.2,9.2 c 4.7,4.7 12.7,5 17.3,0.3 l 65.7,-65.7 65.8,65.8 c 4.7,4.7 12.7,4.3 17.3,-0.4 l 9.2,-9.2 c 4.8,-4.8 4.4,-12 -0.2,-16.7 z"
         inkscape:connector-curvature="0"
         style="fill:#2f93ed" /><path
         id="XMLID_19_"
         class="st2"
         d="m 501.5,464 -65.8,-65.8 66.5,-66.5 c 4.7,-4.7 4.3,-12.7 -0.3,-17.3 l -9.2,-9.2 c -4.7,-4.7 -12,-4.3 -16.7,0.4 l -66.5,66.5 -66.4,-66.4 c -4.7,-4.7 -12,-5.1 -16.7,-0.4 l -9.2,9.2 c -4.7,4.7 -5,12.7 -0.3,17.4 l 66.4,66.4 -65.6,65.7 c -4.7,4.7 -5,12 -0.4,16.7 l 9.2,9.2 c 4.7,4.7 12.7,5 17.3,0.3 l 65.7,-65.7 65.8,65.8 c 4.7,4.7 12.7,4.3 17.3,-0.4 l 9.2,-9.2 c 4.7,-4.7 4.4,-12 -0.3,-16.7 z"
         inkscape:connector-curvature="0"
         style="fill:#2f93ed" /><path
         id="XMLID_18_"
         class="st2"
         d="M 504.3,466.9 438.5,401.1 505,334.6 c 4.7,-4.7 4.3,-12.7 -0.3,-17.3 l -9.2,-9.2 c -4.7,-4.7 -12,-4.3 -16.7,0.4 L 412.4,375 346,308.5 c -4.7,-4.7 -12,-5.1 -16.7,-0.4 l -9.2,9.2 c -4.7,4.7 -5,12.7 -0.3,17.4 l 66.4,66.4 -65.7,65.7 c -4.7,4.7 -5,12 -0.4,16.7 l 9.2,9.2 c 4.7,4.7 12.7,5 17.3,0.3 l 65.7,-65.7 65.8,65.8 c 4.7,4.7 12.7,4.3 17.3,-0.4 l 9.2,-9.2 c 4.8,-4.7 4.4,-12 -0.3,-16.6 z"
         inkscape:connector-curvature="0"
         style="fill:#2f93ed" /><path
         id="XMLID_17_"
         class="st2"
         d="M 507.2,469.7 441.4,404 507.9,337.5 c 4.7,-4.7 4.3,-12.7 -0.3,-17.3 l -9.2,-9.2 c -4.7,-4.7 -12,-4.3 -16.7,0.4 l -66.5,66.5 -66.4,-66.4 c -4.7,-4.7 -12,-5.1 -16.7,-0.4 l -9.2,9.2 c -4.7,4.7 -5,12.7 -0.3,17.4 l 66.4,66.4 -65.7,65.7 c -4.7,4.7 -5,12 -0.4,16.7 l 9.2,9.2 c 4.7,4.7 12.7,5 17.3,0.3 l 65.7,-65.7 65.8,65.8 c 4.7,4.7 12.7,4.3 17.3,-0.4 l 9.2,-9.2 c 4.8,-4.8 4.4,-12.1 -0.2,-16.8 z"
         inkscape:connector-curvature="0"
         style="fill:#2f93ed" /><path
         id="XMLID_16_"
         class="st2"
         d="m 510,472.6 -65.8,-65.8 66.5,-66.5 c 4.7,-4.7 4.3,-12.7 -0.3,-17.3 l -9.2,-9.2 c -4.7,-4.7 -12,-4.3 -16.7,0.4 L 418,380.7 351.6,314.3 c -4.7,-4.7 -12,-5.1 -16.7,-0.4 l -9.2,9.2 c -4.7,4.7 -5,12.7 -0.3,17.4 l 66.4,66.4 -65.7,65.7 c -4.7,4.7 -5,12 -0.4,16.7 l 9.2,9.2 c 4.7,4.7 12.7,5 17.3,0.3 l 65.7,-65.7 65.8,65.8 c 4.7,4.7 12.7,4.3 17.3,-0.4 l 9.2,-9.2 c 4.8,-4.8 4.5,-12.1 -0.2,-16.7 z"
         inkscape:connector-curvature="0"
         style="fill:#2f93ed" /><path
         id="XMLID_15_"
         class="st2"
         d="m 512.9,475.4 -65.8,-65.8 66.5,-66.5 c 4.7,-4.7 4.3,-12.7 -0.3,-17.3 l -9.2,-9.2 c -4.7,-4.7 -12,-4.3 -16.7,0.4 l -66.5,66.5 -66.4,-66.4 c -4.7,-4.7 -12,-5.1 -16.7,-0.4 l -9.2,9.2 c -4.7,4.7 -5,12.7 -0.3,17.4 l 66.4,66.4 -65.7,65.7 c -4.7,4.7 -5,12 -0.4,16.7 l 9.2,9.2 c 4.7,4.7 12.7,5 17.3,0.3 l 65.7,-65.7 65.8,65.8 c 4.7,4.7 12.7,4.3 17.3,-0.4 l 9.2,-9.2 c 4.8,-4.7 4.4,-12 -0.2,-16.7 z"
         inkscape:connector-curvature="0"
         style="fill:#2f93ed" /><path
         id="XMLID_14_"
         class="st2"
         d="M 515.7,478.3 449.9,412.5 516.4,346 c 4.7,-4.7 4.3,-12.7 -0.3,-17.3 l -9.2,-9.2 c -4.7,-4.7 -12,-4.3 -16.7,0.4 L 423.7,386.4 357.3,320 c -4.7,-4.7 -12,-5.1 -16.7,-0.4 l -9.2,9.2 c -4.7,4.7 -5,12.7 -0.3,17.4 l 66.4,66.4 -65.7,65.7 c -4.7,4.7 -5,12 -0.4,16.7 l 9.2,9.2 c 4.7,4.7 12.7,5 17.3,0.3 l 65.7,-65.7 65.8,65.8 c 4.7,4.7 12.7,4.3 17.3,-0.4 l 9.2,-9.2 c 4.8,-4.8 4.5,-12.1 -0.2,-16.7 z"
         inkscape:connector-curvature="0"
         style="fill:#2f93ed" /><path
         id="XMLID_13_"
         class="st2"
         d="m 518.6,481.1 -65.8,-65.8 66.5,-66.5 c 4.7,-4.7 4.3,-12.7 -0.3,-17.3 l -9.2,-9.2 c -4.7,-4.7 -12,-4.3 -16.7,0.4 l -66.5,66.5 -66.4,-66.4 c -4.7,-4.7 -12,-5.1 -16.7,-0.4 l -9.2,9.2 c -4.7,4.7 -5,12.7 -0.3,17.4 l 66.4,66.4 -65.7,65.7 c -4.7,4.7 -5,12 -0.4,16.7 l 9.2,9.2 c 4.7,4.7 12.7,5 17.3,0.3 l 65.7,-65.7 65.8,65.8 c 4.7,4.7 12.7,4.3 17.3,-0.4 l 9.2,-9.2 c 4.8,-4.8 4.4,-12 -0.2,-16.7 z"
         inkscape:connector-curvature="0"
         style="fill:#2f93ed" /><path
         id="XMLID_12_"
         class="st2"
         d="m 521.4,483.9 -65.8,-65.8 66.5,-66.5 c 4.7,-4.7 4.3,-12.7 -0.3,-17.3 l -9.2,-9.2 c -4.7,-4.7 -12,-4.3 -16.7,0.4 L 429.5,392 363,325.6 c -4.7,-4.7 -12,-5.1 -16.7,-0.4 l -9.2,9.2 c -4.7,4.7 -5,12.7 -0.3,17.4 l 66.4,66.4 -65.7,65.7 c -4.7,4.7 -5,12 -0.4,16.7 l 9.2,9.2 c 4.7,4.7 12.7,5 17.3,0.3 l 65.7,-65.7 65.8,65.8 c 4.7,4.7 12.7,4.3 17.3,-0.4 l 9.2,-9.2 c 4.8,-4.7 4.5,-12 -0.2,-16.7 z"
         inkscape:connector-curvature="0"
         style="fill:#2f93ed" /><path
         id="XMLID_11_"
         class="st2"
         d="M 524.2,486.8 458.5,421 525,354.5 c 4.7,-4.7 4.3,-12.7 -0.3,-17.3 l -9.2,-9.2 c -4.7,-4.7 -12,-4.3 -16.7,0.4 l -66.5,66.5 -66.4,-66.4 c -4.7,-4.7 -12,-5.1 -16.7,-0.4 l -9.2,9.2 c -4.7,4.7 -5,12.7 -0.3,17.4 l 66.4,66.4 -65.7,65.7 c -4.7,4.7 -5,12 -0.4,16.7 l 9.2,9.2 c 4.7,4.7 12.7,5 17.3,0.3 l 65.7,-65.7 65.8,65.8 c 4.7,4.7 12.7,4.3 17.3,-0.4 l 9.2,-9.2 c 4.8,-4.8 4.4,-12.1 -0.3,-16.7 z"
         inkscape:connector-curvature="0"
         style="fill:#2f93ed" /><path
         id="XMLID_10_"
         class="st2"
         d="m 527.1,489.6 -65.8,-65.8 66.5,-66.5 c 4.7,-4.7 4.3,-12.7 -0.3,-17.3 l -9.2,-9.2 c -4.7,-4.7 -12,-4.3 -16.7,0.4 l -66.5,66.5 -66.4,-66.4 c -4.7,-4.7 -12,-5.1 -16.7,-0.4 l -9.2,9.2 c -4.7,4.7 -5,12.7 -0.3,17.4 l 66.4,66.4 -65.7,65.7 c -4.7,4.7 -5,12 -0.4,16.7 l 9.2,9.2 c 4.7,4.7 12.7,5 17.3,0.3 l 65.7,-65.7 65.8,65.8 c 4.7,4.7 12.7,4.3 17.3,-0.4 l 9.2,-9.2 c 4.8,-4.7 4.4,-12 -0.2,-16.7 z"
         inkscape:connector-curvature="0"
         style="fill:#2f93ed" /><path
         id="XMLID_8_"
         class="st2"
         d="m 529.9,492.5 -65.8,-65.8 66.5,-66.5 c 4.7,-4.7 4.3,-12.7 -0.3,-17.3 l -9.2,-9.2 c -4.7,-4.7 -12,-4.3 -16.7,0.4 L 438,400.5 371.6,334.1 c -4.7,-4.7 -12,-5.1 -16.7,-0.4 l -9.2,9.2 c -4.7,4.7 -5,12.7 -0.3,17.4 l 66.4,66.4 -65.7,65.7 c -4.7,4.7 -5,12 -0.4,16.7 l 9.2,9.2 c 4.7,4.7 12.7,5 17.3,0.3 l 65.7,-65.7 65.8,65.8 c 4.7,4.7 12.7,4.3 17.3,-0.4 l 9.2,-9.2 c 4.7,-4.7 4.4,-12 -0.3,-16.6 z"
         inkscape:connector-curvature="0"
         style="fill:#2f93ed" /></g></g><path
     id="XMLID_4_"
     class="st3"
     d="M 162.17862,144.99324 117.659,100.47362 162.65223,55.48039 c 3.17997,-3.17998 2.90934,-8.5927 -0.20298,-11.70501 l -6.22463,-6.22463 c -3.17997,-3.17997 -8.11908,-2.90933 -11.29905,0.27064 L 100,82.74696 55.074423,37.82139 c -3.17997,-3.17997 -8.11908,-3.45061 -11.29905,-0.27064 l -6.22463,6.22463 c -3.17997,3.17997 -3.38295,8.59269 -0.20297,11.77267 l 44.92557,44.92557 -44.45196,44.45196 c -3.17997,3.17997 -3.38295,8.11908 -0.27064,11.29905 l 6.22463,6.22463 c 3.17997,3.17997 8.59269,3.38295 11.70501,0.20298 l 44.45196,-44.45196 44.519617,44.51962 c 3.17997,3.17997 8.59269,2.90933 11.705,-0.27064 l 6.22463,-6.22463 c 3.17998,-3.17997 2.977,-8.11908 -0.20297,-11.23139 z"
     inkscape:connector-curvature="0"
     style="fill:#f78db8" /></svg>