<?xml version="1.0" encoding="UTF-8" standalone="no"?>
<!-- Generator: Adobe Illustrator 19.0.0, SVG Export Plug-In . SVG Version: 6.00 Build 0)  -->

<svg
   xmlns:dc="http://purl.org/dc/elements/1.1/"
   xmlns:cc="http://creativecommons.org/ns#"
   xmlns:rdf="http://www.w3.org/1999/02/22-rdf-syntax-ns#"
   xmlns:svg="http://www.w3.org/2000/svg"
   xmlns="http://www.w3.org/2000/svg"
   xmlns:xlink="http://www.w3.org/1999/xlink"
   xmlns:sodipodi="http://sodipodi.sourceforge.net/DTD/sodipodi-0.dtd"
   xmlns:inkscape="http://www.inkscape.org/namespaces/inkscape"
   version="1.1"
   id="Layer_1"
   x="0px"
   y="0px"
   viewBox="0 0 200 200"
   xml:space="preserve"
   inkscape:version="0.91 r13725"
   sodipodi:docname="confirm.svg"
   width="200"
   height="200"><metadata
     id="metadata82"><rdf:RDF><cc:Work
         rdf:about=""><dc:format>image/svg+xml</dc:format><dc:type
           rdf:resource="http://purl.org/dc/dcmitype/StillImage" /><dc:title /></cc:Work></rdf:RDF></metadata><defs
     id="defs80" /><sodipodi:namedview
     pagecolor="#ffffff"
     bordercolor="#666666"
     borderopacity="1"
     objecttolerance="10"
     gridtolerance="10"
     guidetolerance="10"
     inkscape:pageopacity="0"
     inkscape:pageshadow="2"
     inkscape:window-width="1920"
     inkscape:window-height="1017"
     id="namedview78"
     showgrid="false"
     inkscape:zoom="0.85736697"
     inkscape:cx="160.47967"
     inkscape:cy="235.71871"
     inkscape:window-x="-8"
     inkscape:window-y="-8"
     inkscape:window-maximized="1"
     inkscape:current-layer="Layer_1" /><style
     type="text/css"
     id="style3">
	.st0{fill:#A6C4FF;}
	.st1{clip-path:url(#deleteBackground_2_);}
	.st2{fill:#2F93ED;}
	.st3{fill:#85BC61;}
</style><circle
     id="deleteBackground"
     class="st0"
     cx="100"
     cy="100"
     style="fill:#a6c4ff"
     r="100" /><g
     id="XMLID_1_"
     transform="matrix(0.67658997,0,0,0.67658997,-63.193499,-53.58592)"><defs
       id="defs7"><circle
         id="deleteBackground_1_"
         cx="241.2"
         cy="227"
         r="147.8" /></defs><clipPath
       id="deleteBackground_2_"><use
         xlink:href="#deleteBackground_1_"
         style="overflow:visible"
         id="use11"
         x="0"
         y="0"
         width="100%"
         height="100%" /></clipPath><g
       id="XMLID_70_"
       class="st1"
       clip-path="url(#deleteBackground_2_)"><path
         id="XMLID_8_"
         class="st2"
         d="m 348.2,159.7 -9.2,-9.2 c -4.7,-4.7 -12.3,-4.7 -17,0 l -109,109 -52.8,-52.8 c -4.7,-4.7 -12.3,-4.7 -17,0 l -9.2,9.2 c -4.7,4.7 -4.7,12.3 0,17 l 60,60 c 0.3,0.5 0.7,0.9 1.1,1.3 l 9.2,9.2 c 2.4,2.4 5.5,3.5 8.6,3.5 3.1,0 6.2,-1.1 8.6,-3.5 l 9.2,-9.2 c 0.4,-0.4 0.8,-0.9 1.1,-1.3 L 348.1,176.6 c 4.8,-4.6 4.8,-12.2 0.1,-16.9 z"
         inkscape:connector-curvature="0"
         style="fill:#2f93ed" /><path
         id="XMLID_69_"
         class="st2"
         d="m 351,162.5 -9.2,-9.2 c -4.7,-4.7 -12.3,-4.7 -17,0 l -109,109 -52.8,-52.8 c -4.7,-4.7 -12.3,-4.7 -17,0 l -9.2,9.2 c -4.7,4.7 -4.7,12.3 0,17 l 60,60 c 0.3,0.5 0.7,0.9 1.1,1.3 l 9.2,9.2 c 2.4,2.4 5.5,3.4 8.6,3.5 3.1,0.1 6.2,-1.1 8.6,-3.5 l 9.2,-9.2 c 0.4,-0.4 0.8,-0.9 1.1,-1.3 L 351,179.5 c 4.7,-4.7 4.7,-12.3 0,-17 z"
         inkscape:connector-curvature="0"
         style="fill:#2f93ed" /><path
         id="XMLID_68_"
         class="st2"
         d="m 353.9,165.4 -9.2,-9.2 c -4.7,-4.7 -12.3,-4.7 -17,0 l -109,109 -52.8,-52.8 c -4.7,-4.7 -12.3,-4.7 -17,0 l -9.2,9.2 c -4.7,4.7 -4.7,12.3 0,17 l 60,60 c 0.3,0.5 0.7,0.9 1.1,1.3 l 9.2,9.2 c 2.4,2.4 5.5,3.4 8.6,3.5 3.1,0.1 6.2,-1.1 8.6,-3.5 l 9.2,-9.2 c 0.4,-0.4 0.8,-0.9 1.1,-1.3 L 353.8,182.3 c 4.7,-4.6 4.7,-12.3 0.1,-16.9 z"
         inkscape:connector-curvature="0"
         style="fill:#2f93ed" /><path
         id="XMLID_67_"
         class="st2"
         d="m 356.7,168.2 -9.2,-9.2 c -4.7,-4.7 -12.3,-4.7 -17,0 l -109,109 -52.8,-52.8 c -4.7,-4.7 -12.3,-4.7 -17,0 l -9.2,9.2 c -4.7,4.7 -4.7,12.3 0,17 l 60,60 c 0.3,0.5 0.7,0.9 1.1,1.3 l 9.2,9.2 c 2.4,2.4 5.5,3.4 8.6,3.5 3.1,0.1 6.2,-1.1 8.6,-3.5 l 9.2,-9.2 c 0.4,-0.4 0.8,-0.9 1.1,-1.3 L 356.6,185.1 c 4.8,-4.6 4.8,-12.3 0.1,-16.9 z"
         inkscape:connector-curvature="0"
         style="fill:#2f93ed" /><path
         id="XMLID_66_"
         class="st2"
         d="m 359.5,171 -9.2,-9.2 c -4.7,-4.7 -12.3,-4.7 -17,0 l -109,109 -52.8,-52.8 c -4.7,-4.7 -12.3,-4.7 -17,0 l -9.2,9.2 c -4.7,4.7 -4.7,12.3 0,17 l 60,60 c 0.3,0.5 0.7,0.9 1.1,1.3 l 9.2,9.2 c 2.4,2.4 5.5,3.4 8.6,3.5 3.1,0.1 6.2,-1.1 8.6,-3.5 l 9.2,-9.2 c 0.4,-0.4 0.8,-0.9 1.1,-1.3 L 359.5,188 c 4.7,-4.7 4.7,-12.3 0,-17 z"
         inkscape:connector-curvature="0"
         style="fill:#2f93ed" /><path
         id="XMLID_65_"
         class="st2"
         d="m 362.3,173.8 -9.2,-9.2 c -4.7,-4.7 -12.3,-4.7 -17,0 l -109,109 -52.8,-52.8 c -4.7,-4.7 -12.3,-4.7 -17,0 l -9.2,9.2 c -4.7,4.7 -4.7,12.3 0,17 l 60,60 c 0.3,0.5 0.7,0.9 1.1,1.3 l 9.2,9.2 c 2.4,2.4 5.5,3.4 8.6,3.5 3.1,0.1 6.2,-1.1 8.6,-3.5 l 9.2,-9.2 c 0.4,-0.4 0.8,-0.9 1.1,-1.3 L 362.2,190.7 c 4.8,-4.6 4.8,-12.2 0.1,-16.9 z"
         inkscape:connector-curvature="0"
         style="fill:#2f93ed" /><path
         id="XMLID_64_"
         class="st2"
         d="m 365.2,176.6 -9.2,-9.2 c -4.7,-4.7 -12.3,-4.7 -17,0 l -109,109 -52.8,-52.8 c -4.7,-4.7 -12.3,-4.7 -17,0 l -9.2,9.2 c -4.7,4.7 -4.7,12.3 0,17 l 60,60 c 0.3,0.5 0.7,0.9 1.1,1.3 l 9.2,9.2 c 2.4,2.4 5.5,3.4 8.6,3.5 3.1,0.1 6.2,-1.1 8.6,-3.5 l 9.2,-9.2 c 0.4,-0.4 0.8,-0.9 1.1,-1.3 L 365.1,193.5 c 4.7,-4.6 4.7,-12.2 0.1,-16.9 z"
         inkscape:connector-curvature="0"
         style="fill:#2f93ed" /><path
         id="XMLID_63_"
         class="st2"
         d="m 368,179.5 -9.2,-9.2 c -4.7,-4.7 -12.3,-4.7 -17,0 l -109,109 -52.8,-52.8 c -4.7,-4.7 -12.3,-4.7 -17,0 l -9.2,9.2 c -4.7,4.7 -4.7,12.3 0,17 l 60,60 c 0.3,0.5 0.7,0.9 1.1,1.3 l 9.2,9.2 c 2.4,2.4 5.5,3.4 8.6,3.5 3.1,0.1 6.2,-1.1 8.6,-3.5 l 9.2,-9.2 c 0.4,-0.4 0.8,-0.9 1.1,-1.3 L 368,196.4 c 4.6,-4.6 4.6,-12.3 0,-16.9 z"
         inkscape:connector-curvature="0"
         style="fill:#2f93ed" /><path
         id="XMLID_62_"
         class="st2"
         d="m 370.8,182.3 -9.2,-9.2 c -4.7,-4.7 -12.3,-4.7 -17,0 l -109,109 -52.8,-52.8 c -4.7,-4.7 -12.3,-4.7 -17,0 l -9.2,9.2 c -4.7,4.7 -4.7,12.3 0,17 l 60,60 c 0.3,0.5 0.7,0.9 1.1,1.3 l 9.2,9.2 c 2.4,2.4 5.5,3.4 8.6,3.5 3.1,0.1 6.2,-1.1 8.6,-3.5 l 9.2,-9.2 c 0.4,-0.4 0.8,-0.9 1.1,-1.3 L 370.7,199.2 c 4.8,-4.6 4.8,-12.2 0.1,-16.9 z"
         inkscape:connector-curvature="0"
         style="fill:#2f93ed" /><path
         id="XMLID_61_"
         class="st2"
         d="m 373.6,185.1 -9.2,-9.2 c -4.7,-4.7 -12.3,-4.7 -17,0 l -109,109 -52.8,-52.8 c -4.7,-4.7 -12.3,-4.7 -17,0 l -9.2,9.2 c -4.7,4.7 -4.7,12.3 0,17 l 60,60 c 0.3,0.5 0.7,0.9 1.1,1.3 l 9.2,9.2 c 2.4,2.4 5.5,3.4 8.6,3.5 3.1,0.1 6.2,-1.1 8.6,-3.5 l 9.2,-9.2 c 0.4,-0.4 0.8,-0.9 1.1,-1.3 L 373.5,202 c 4.8,-4.6 4.8,-12.2 0.1,-16.9 z"
         inkscape:connector-curvature="0"
         style="fill:#2f93ed" /><path
         id="XMLID_60_"
         class="st2"
         d="m 376.4,187.9 -9.2,-9.2 c -4.7,-4.7 -12.3,-4.7 -17,0 l -109,109 -52.7,-52.7 c -4.7,-4.7 -12.3,-4.7 -17,0 l -9.2,9.2 c -4.7,4.7 -4.7,12.3 0,17 l 60,60 c 0.3,0.5 0.7,0.9 1.1,1.3 l 9.2,9.2 c 2.4,2.4 5.5,3.4 8.6,3.5 3.1,0.1 6.2,-1.1 8.6,-3.5 l 9.2,-9.2 c 0.4,-0.4 0.8,-0.9 1.1,-1.3 L 376.4,204.9 c 4.7,-4.7 4.7,-12.3 0,-17 z"
         inkscape:connector-curvature="0"
         style="fill:#2f93ed" /><path
         id="XMLID_59_"
         class="st2"
         d="m 379.3,190.8 -9.2,-9.2 c -4.7,-4.7 -12.3,-4.7 -17,0 l -109,109 -52.8,-52.8 c -4.7,-4.7 -12.3,-4.7 -17,0 l -9.2,9.2 c -4.7,4.7 -4.7,12.3 0,17 l 60,60 c 0.3,0.5 0.7,0.9 1.1,1.3 l 9.2,9.2 c 2.4,2.4 5.5,3.4 8.6,3.5 3.1,0.1 6.2,-1.1 8.6,-3.5 l 9.2,-9.2 c 0.4,-0.4 0.8,-0.9 1.1,-1.3 L 379.2,207.7 c 4.7,-4.6 4.7,-12.3 0.1,-16.9 z"
         inkscape:connector-curvature="0"
         style="fill:#2f93ed" /><path
         id="XMLID_58_"
         class="st2"
         d="m 382.1,193.6 -9.2,-9.2 c -4.7,-4.7 -12.3,-4.7 -17,0 l -109,109 -52.8,-52.8 c -4.7,-4.7 -12.3,-4.7 -17,0 l -9.2,9.2 c -4.7,4.7 -4.7,12.3 0,17 l 60,60 c 0.3,0.5 0.7,0.9 1.1,1.3 l 9.2,9.2 c 2.4,2.4 5.5,3.4 8.6,3.5 3.1,0.1 6.2,-1.1 8.6,-3.5 l 9.2,-9.2 c 0.4,-0.4 0.8,-0.9 1.1,-1.3 L 382,210.5 c 4.8,-4.6 4.8,-12.3 0.1,-16.9 z"
         inkscape:connector-curvature="0"
         style="fill:#2f93ed" /><path
         id="XMLID_57_"
         class="st2"
         d="m 384.9,196.4 -9.2,-9.2 c -4.7,-4.7 -12.3,-4.7 -17,0 l -109,109 -52.8,-52.8 c -4.7,-4.7 -12.3,-4.7 -17,0 l -9.2,9.2 c -4.7,4.7 -4.7,12.3 0,17 l 60,60 c 0.3,0.5 0.7,0.9 1.1,1.3 l 9.2,9.2 c 2.4,2.4 5.5,3.4 8.6,3.5 3.1,0.1 6.2,-1.1 8.6,-3.5 l 9.2,-9.2 c 0.4,-0.4 0.8,-0.9 1.1,-1.3 L 384.8,213.3 c 4.8,-4.6 4.8,-12.2 0.1,-16.9 z"
         inkscape:connector-curvature="0"
         style="fill:#2f93ed" /><path
         id="XMLID_56_"
         class="st2"
         d="m 387.7,199.2 -9.2,-9.2 c -4.7,-4.7 -12.3,-4.7 -17,0 l -109,109 -52.8,-52.8 c -4.7,-4.7 -12.3,-4.7 -17,0 l -9.2,9.2 c -4.7,4.7 -4.7,12.3 0,17 l 60,60 c 0.3,0.5 0.7,0.9 1.1,1.3 l 9.2,9.2 c 2.4,2.4 5.5,3.4 8.6,3.5 3.1,0.1 6.2,-1.1 8.6,-3.5 l 9.2,-9.2 c 0.4,-0.4 0.8,-0.9 1.1,-1.3 L 387.6,216.1 c 4.8,-4.6 4.8,-12.2 0.1,-16.9 z"
         inkscape:connector-curvature="0"
         style="fill:#2f93ed" /><path
         id="XMLID_55_"
         class="st2"
         d="m 390.6,202 -9.2,-9.2 c -4.7,-4.7 -12.3,-4.7 -17,0 l -109,109 -52.8,-52.8 c -4.7,-4.7 -12.3,-4.7 -17,0 l -9.2,9.2 c -4.7,4.7 -4.7,12.3 0,17 l 60,60 c 0.3,0.5 0.7,0.9 1.1,1.3 l 9.2,9.2 c 2.4,2.4 5.5,3.4 8.6,3.5 3.1,0.1 6.2,-1.1 8.6,-3.5 l 9.2,-9.2 c 0.4,-0.4 0.8,-0.9 1.1,-1.3 L 390.6,219 c 4.6,-4.6 4.6,-12.3 0,-17 z"
         inkscape:connector-curvature="0"
         style="fill:#2f93ed" /><path
         id="XMLID_54_"
         class="st2"
         d="m 393.4,204.9 -9.2,-9.2 c -4.7,-4.7 -12.3,-4.7 -17,0 l -109,109 -52.8,-52.8 c -4.7,-4.7 -12.3,-4.7 -17,0 l -9.2,9.2 c -4.7,4.7 -4.7,12.3 0,17 l 60,60 c 0.3,0.5 0.7,0.9 1.1,1.3 l 9.2,9.2 c 2.4,2.4 5.5,3.4 8.6,3.5 3.1,0.1 6.2,-1.1 8.6,-3.5 l 9.2,-9.2 c 0.4,-0.4 0.8,-0.9 1.1,-1.3 L 393.3,221.8 c 4.7,-4.6 4.7,-12.3 0.1,-16.9 z"
         inkscape:connector-curvature="0"
         style="fill:#2f93ed" /><path
         id="XMLID_53_"
         class="st2"
         d="m 396.2,207.7 -9.2,-9.2 c -4.7,-4.7 -12.3,-4.7 -17,0 l -109,109 -52.8,-52.8 c -4.7,-4.7 -12.3,-4.7 -17,0 l -9.2,9.2 c -4.7,4.7 -4.7,12.3 0,17 l 60,60 c 0.3,0.5 0.7,0.9 1.1,1.3 l 9.2,9.2 c 2.4,2.4 5.5,3.4 8.6,3.5 3.1,0.1 6.2,-1.1 8.6,-3.5 l 9.2,-9.2 c 0.4,-0.4 0.8,-0.9 1.1,-1.3 L 396.1,224.6 c 4.8,-4.6 4.8,-12.2 0.1,-16.9 z"
         inkscape:connector-curvature="0"
         style="fill:#2f93ed" /><path
         id="XMLID_52_"
         class="st2"
         d="m 399,210.5 -9.2,-9.2 c -4.7,-4.7 -12.3,-4.7 -17,0 l -109,109 -52.8,-52.8 c -4.7,-4.7 -12.3,-4.7 -17,0 l -9.2,9.2 c -4.7,4.7 -4.7,12.3 0,17 l 60,60 c 0.3,0.5 0.7,0.9 1.1,1.3 l 9.2,9.2 c 2.4,2.4 5.5,3.4 8.6,3.5 3.1,0.1 6.2,-1.1 8.6,-3.5 l 9.2,-9.2 c 0.4,-0.4 0.8,-0.9 1.1,-1.3 L 399,227.5 c 4.7,-4.7 4.7,-12.3 0,-17 z"
         inkscape:connector-curvature="0"
         style="fill:#2f93ed" /><path
         id="XMLID_51_"
         class="st2"
         d="m 401.8,213.3 -9.2,-9.2 c -4.7,-4.7 -12.3,-4.7 -17,0 l -109,109 -52.8,-52.8 c -4.7,-4.7 -12.3,-4.7 -17,0 l -9.2,9.2 c -4.7,4.7 -4.7,12.3 0,17 l 60,60 c 0.3,0.5 0.7,0.9 1.1,1.3 l 9.2,9.2 c 2.4,2.4 5.5,3.4 8.6,3.5 3.1,0.1 6.2,-1.1 8.6,-3.5 l 9.2,-9.2 c 0.4,-0.4 0.8,-0.9 1.1,-1.3 L 401.7,230.2 c 4.8,-4.6 4.8,-12.2 0.1,-16.9 z"
         inkscape:connector-curvature="0"
         style="fill:#2f93ed" /><path
         id="XMLID_50_"
         class="st2"
         d="m 404.7,216.2 -9.2,-9.2 c -4.7,-4.7 -12.3,-4.7 -17,0 l -109,109 -52.8,-52.8 c -4.7,-4.7 -12.3,-4.7 -17,0 l -9.2,9.2 c -4.7,4.7 -4.7,12.3 0,17 l 60,60 c 0.3,0.5 0.7,0.9 1.1,1.3 l 9.2,9.2 c 2.4,2.4 5.5,3.4 8.6,3.5 3.1,0.1 6.2,-1.1 8.6,-3.5 l 9.2,-9.2 c 0.4,-0.4 0.8,-0.9 1.1,-1.3 L 404.6,233.1 c 4.7,-4.6 4.7,-12.3 0.1,-16.9 z"
         inkscape:connector-curvature="0"
         style="fill:#2f93ed" /><path
         id="XMLID_49_"
         class="st2"
         d="m 407.5,219 -9.2,-9.2 c -4.7,-4.7 -12.3,-4.7 -17,0 l -109,109 -52.8,-52.8 c -4.7,-4.7 -12.3,-4.7 -17,0 l -9.2,9.2 c -4.7,4.7 -4.7,12.3 0,17 l 60,60 c 0.3,0.5 0.7,0.9 1.1,1.3 l 9.2,9.2 c 2.4,2.4 5.5,3.4 8.6,3.5 3.1,0.1 6.2,-1.1 8.6,-3.5 l 9.2,-9.2 c 0.4,-0.4 0.8,-0.9 1.1,-1.3 L 407.5,236 c 4.7,-4.7 4.7,-12.3 0,-17 z"
         inkscape:connector-curvature="0"
         style="fill:#2f93ed" /><path
         id="XMLID_48_"
         class="st2"
         d="m 410.3,221.8 -9.2,-9.2 c -4.7,-4.7 -12.3,-4.7 -17,0 l -109,109 -52.8,-52.8 c -4.7,-4.7 -12.3,-4.7 -17,0 l -9.2,9.2 c -4.7,4.7 -4.7,12.3 0,17 l 60,60 c 0.3,0.5 0.7,0.9 1.1,1.3 l 9.2,9.2 c 2.4,2.4 5.5,3.4 8.6,3.5 3.1,0.1 6.2,-1.1 8.6,-3.5 l 9.2,-9.2 c 0.4,-0.4 0.8,-0.9 1.1,-1.3 L 410.2,238.7 c 4.8,-4.6 4.8,-12.2 0.1,-16.9 z"
         inkscape:connector-curvature="0"
         style="fill:#2f93ed" /><path
         id="XMLID_47_"
         class="st2"
         d="m 413.1,224.6 -9.2,-9.2 c -4.7,-4.7 -12.3,-4.7 -17,0 l -109,109 -52.8,-52.8 c -4.7,-4.7 -12.3,-4.7 -17,0 l -9.2,9.2 c -4.7,4.7 -4.7,12.3 0,17 l 60,60 c 0.3,0.5 0.7,0.9 1.1,1.3 l 9.2,9.2 c 2.4,2.4 5.5,3.4 8.6,3.5 3.1,0.1 6.2,-1.1 8.6,-3.5 l 9.2,-9.2 c 0.4,-0.4 0.8,-0.9 1.1,-1.3 L 413,241.5 c 4.8,-4.6 4.8,-12.2 0.1,-16.9 z"
         inkscape:connector-curvature="0"
         style="fill:#2f93ed" /><path
         id="XMLID_46_"
         class="st2"
         d="m 416,227.5 -9.2,-9.2 c -4.7,-4.7 -12.3,-4.7 -17,0 l -109,109 -52.8,-52.8 c -4.7,-4.7 -12.3,-4.7 -17,0 l -9.2,9.2 c -4.7,4.7 -4.7,12.3 0,17 l 60,60 c 0.3,0.5 0.7,0.9 1.1,1.3 l 9.2,9.2 c 2.4,2.4 5.5,3.4 8.6,3.5 3.1,0.1 6.2,-1.1 8.6,-3.5 l 9.2,-9.2 c 0.4,-0.4 0.8,-0.9 1.1,-1.3 L 416,244.4 c 4.6,-4.6 4.6,-12.3 0,-16.9 z"
         inkscape:connector-curvature="0"
         style="fill:#2f93ed" /><path
         id="XMLID_45_"
         class="st2"
         d="m 418.8,230.3 -9.2,-9.2 c -4.7,-4.7 -12.3,-4.7 -17,0 l -109,109 -52.8,-52.8 c -4.7,-4.7 -12.3,-4.7 -17,0 l -9.2,9.2 c -4.7,4.7 -4.7,12.3 0,17 l 60,60 c 0.3,0.5 0.7,0.9 1.1,1.3 l 9.2,9.2 c 2.4,2.4 5.5,3.4 8.6,3.5 3.1,0.1 6.2,-1.1 8.6,-3.5 l 9.2,-9.2 c 0.4,-0.4 0.8,-0.9 1.1,-1.3 L 418.7,247.2 c 4.7,-4.6 4.7,-12.3 0.1,-16.9 z"
         inkscape:connector-curvature="0"
         style="fill:#2f93ed" /><path
         id="XMLID_44_"
         class="st2"
         d="m 421.6,233.1 -9.2,-9.2 c -4.7,-4.7 -12.3,-4.7 -17,0 l -109,109 -52.8,-52.8 c -4.7,-4.7 -12.3,-4.7 -17,0 l -9.2,9.2 c -4.7,4.7 -4.7,12.3 0,17 l 60,60 c 0.3,0.5 0.7,0.9 1.1,1.3 l 9.2,9.2 c 2.4,2.4 5.5,3.4 8.6,3.5 3.1,0.1 6.2,-1.1 8.6,-3.5 l 9.2,-9.2 c 0.4,-0.4 0.8,-0.9 1.1,-1.3 L 421.5,250 c 4.8,-4.6 4.8,-12.2 0.1,-16.9 z"
         inkscape:connector-curvature="0"
         style="fill:#2f93ed" /><path
         id="XMLID_43_"
         class="st2"
         d="m 424.4,235.9 -9.2,-9.2 c -4.7,-4.7 -12.3,-4.7 -17,0 l -109,109 -52.7,-52.7 c -4.7,-4.7 -12.3,-4.7 -17,0 l -9.2,9.2 c -4.7,4.7 -4.7,12.3 0,17 l 60,60 c 0.3,0.5 0.7,0.9 1.1,1.3 l 9.2,9.2 c 2.4,2.4 5.5,3.4 8.6,3.5 3.1,0.1 6.2,-1.1 8.6,-3.5 l 9.2,-9.2 c 0.4,-0.4 0.8,-0.9 1.1,-1.3 L 424.4,252.9 c 4.7,-4.7 4.7,-12.3 0,-17 z"
         inkscape:connector-curvature="0"
         style="fill:#2f93ed" /><path
         id="XMLID_42_"
         class="st2"
         d="m 427.3,238.7 -9.2,-9.2 c -4.7,-4.7 -12.3,-4.7 -17,0 l -109,109 -52.8,-52.8 c -4.7,-4.7 -12.3,-4.7 -17,0 l -9.2,9.2 c -4.7,4.7 -4.7,12.3 0,17 l 60,60 c 0.3,0.5 0.7,0.9 1.1,1.3 l 9.2,9.2 c 2.4,2.4 5.5,3.4 8.6,3.5 3.1,0.1 6.2,-1.1 8.6,-3.5 l 9.2,-9.2 c 0.4,-0.4 0.8,-0.9 1.1,-1.3 L 427.2,255.6 c 4.7,-4.6 4.7,-12.2 0.1,-16.9 z"
         inkscape:connector-curvature="0"
         style="fill:#2f93ed" /><path
         id="XMLID_41_"
         class="st2"
         d="m 430.1,241.6 -9.2,-9.2 c -4.7,-4.7 -12.3,-4.7 -17,0 l -109,109 -52.8,-52.8 c -4.7,-4.7 -12.3,-4.7 -17,0 l -9.2,9.2 c -4.7,4.7 -4.7,12.3 0,17 l 60,60 c 0.3,0.5 0.7,0.9 1.1,1.3 l 9.2,9.2 c 2.4,2.4 5.5,3.4 8.6,3.5 3.1,0.1 6.2,-1.1 8.6,-3.5 l 9.2,-9.2 c 0.4,-0.4 0.8,-0.9 1.1,-1.3 L 430,258.5 c 4.7,-4.6 4.7,-12.3 0.1,-16.9 z"
         inkscape:connector-curvature="0"
         style="fill:#2f93ed" /><path
         id="XMLID_40_"
         class="st2"
         d="m 432.9,244.4 -9.2,-9.2 c -4.7,-4.7 -12.3,-4.7 -17,0 l -109,109 -52.8,-52.8 c -4.7,-4.7 -12.3,-4.7 -17,0 l -9.2,9.2 c -4.7,4.7 -4.7,12.3 0,17 l 60,60 c 0.3,0.5 0.7,0.9 1.1,1.3 l 9.2,9.2 c 2.4,2.4 5.5,3.4 8.6,3.5 3.1,0.1 6.2,-1.1 8.6,-3.5 l 9.2,-9.2 c 0.4,-0.4 0.8,-0.9 1.1,-1.3 L 432.8,261.3 c 4.8,-4.6 4.8,-12.2 0.1,-16.9 z"
         inkscape:connector-curvature="0"
         style="fill:#2f93ed" /><path
         id="XMLID_39_"
         class="st2"
         d="m 435.7,247.2 -9.2,-9.2 c -4.7,-4.7 -12.3,-4.7 -17,0 l -109,109 -52.8,-52.8 c -4.7,-4.7 -12.3,-4.7 -17,0 l -9.2,9.2 c -4.7,4.7 -4.7,12.3 0,17 l 60,60 c 0.3,0.5 0.7,0.9 1.1,1.3 l 9.2,9.2 c 2.4,2.4 5.5,3.4 8.6,3.5 3.1,0.1 6.2,-1.1 8.6,-3.5 l 9.2,-9.2 c 0.4,-0.4 0.8,-0.9 1.1,-1.3 L 435.6,264.1 c 4.8,-4.6 4.8,-12.2 0.1,-16.9 z"
         inkscape:connector-curvature="0"
         style="fill:#2f93ed" /><path
         id="XMLID_38_"
         class="st2"
         d="m 438.5,250 -9.2,-9.2 c -4.7,-4.7 -12.3,-4.7 -17,0 l -109,109 -52.8,-52.8 c -4.7,-4.7 -12.3,-4.7 -17,0 l -9.2,9.2 c -4.7,4.7 -4.7,12.3 0,17 l 60,60 c 0.3,0.5 0.7,0.9 1.1,1.3 l 9.2,9.2 c 2.4,2.4 5.5,3.4 8.6,3.5 3.1,0.1 6.2,-1.1 8.6,-3.5 l 9.2,-9.2 c 0.4,-0.4 0.8,-0.9 1.1,-1.3 L 438.5,267 c 4.7,-4.7 4.7,-12.3 0,-17 z"
         inkscape:connector-curvature="0"
         style="fill:#2f93ed" /><path
         id="XMLID_37_"
         class="st2"
         d="m 441.4,252.9 -9.2,-9.2 c -4.7,-4.7 -12.3,-4.7 -17,0 l -109,109 -52.8,-52.8 c -4.7,-4.7 -12.3,-4.7 -17,0 l -9.2,9.2 c -4.7,4.7 -4.7,12.3 0,17 l 60,60 c 0.3,0.5 0.7,0.9 1.1,1.3 l 9.2,9.2 c 2.4,2.4 5.5,3.4 8.6,3.5 3.1,0.1 6.2,-1.1 8.6,-3.5 l 9.2,-9.2 c 0.4,-0.4 0.8,-0.9 1.1,-1.3 L 441.3,269.8 c 4.7,-4.6 4.7,-12.3 0.1,-16.9 z"
         inkscape:connector-curvature="0"
         style="fill:#2f93ed" /><path
         id="XMLID_36_"
         class="st2"
         d="m 444.2,255.7 -9.2,-9.2 c -4.7,-4.7 -12.3,-4.7 -17,0 l -109,109 -52.8,-52.8 c -4.7,-4.7 -12.3,-4.7 -17,0 l -9.2,9.2 c -4.7,4.7 -4.7,12.3 0,17 l 60,60 c 0.3,0.5 0.7,0.9 1.1,1.3 l 9.2,9.2 c 2.4,2.4 5.5,3.4 8.6,3.5 3.1,0.1 6.2,-1.1 8.6,-3.5 l 9.2,-9.2 c 0.4,-0.4 0.8,-0.9 1.1,-1.3 L 444.1,272.6 c 4.8,-4.6 4.8,-12.3 0.1,-16.9 z"
         inkscape:connector-curvature="0"
         style="fill:#2f93ed" /><path
         id="XMLID_35_"
         class="st2"
         d="m 447,258.5 -9.2,-9.2 c -4.7,-4.7 -12.3,-4.7 -17,0 l -109,109 -52.8,-52.7 c -4.7,-4.7 -12.3,-4.7 -17,0 l -9.2,9.2 c -4.7,4.7 -4.7,12.3 0,17 l 60,60 c 0.3,0.5 0.7,0.9 1.1,1.3 l 9.2,9.2 c 2.4,2.4 5.5,3.4 8.6,3.5 3.1,0.1 6.2,-1.1 8.6,-3.5 l 9.2,-9.2 c 0.4,-0.4 0.8,-0.9 1.1,-1.3 L 447,275.5 c 4.7,-4.7 4.7,-12.3 0,-17 z"
         inkscape:connector-curvature="0"
         style="fill:#2f93ed" /><path
         id="XMLID_34_"
         class="st2"
         d="m 449.8,261.3 -9.2,-9.2 c -4.7,-4.7 -12.3,-4.7 -17,0 l -109,109 -52.8,-52.8 c -4.7,-4.7 -12.3,-4.7 -17,0 l -9.2,9.2 c -4.7,4.7 -4.7,12.3 0,17 l 60,60 c 0.3,0.5 0.7,0.9 1.1,1.3 l 9.2,9.2 c 2.4,2.4 5.5,3.4 8.6,3.5 3.1,0.1 6.2,-1.1 8.6,-3.5 l 9.2,-9.2 c 0.4,-0.4 0.8,-0.9 1.1,-1.3 L 449.7,278.2 c 4.8,-4.6 4.8,-12.2 0.1,-16.9 z"
         inkscape:connector-curvature="0"
         style="fill:#2f93ed" /><path
         id="XMLID_33_"
         class="st2"
         d="m 452.7,264.1 -9.2,-9.2 c -4.7,-4.7 -12.3,-4.7 -17,0 l -109,109 -52.8,-52.8 c -4.7,-4.7 -12.3,-4.7 -17,0 l -9.2,9.2 c -4.7,4.7 -4.7,12.3 0,17 l 60,60 c 0.3,0.5 0.7,0.9 1.1,1.3 l 9.2,9.2 c 2.4,2.4 5.5,3.4 8.6,3.5 3.1,0.1 6.2,-1.1 8.6,-3.5 l 9.2,-9.2 c 0.4,-0.4 0.8,-0.9 1.1,-1.3 L 452.6,281 c 4.7,-4.6 4.7,-12.2 0.1,-16.9 z"
         inkscape:connector-curvature="0"
         style="fill:#2f93ed" /><path
         id="XMLID_32_"
         class="st2"
         d="m 455.5,267 -9.2,-9.2 c -4.7,-4.7 -12.3,-4.7 -17,0 l -109,109 -52.8,-52.8 c -4.7,-4.7 -12.3,-4.7 -17,0 l -9.2,9.2 c -4.7,4.7 -4.7,12.3 0,17 l 60,60 c 0.3,0.5 0.7,0.9 1.1,1.3 l 9.2,9.2 c 2.4,2.4 5.5,3.4 8.6,3.5 3.1,0.1 6.2,-1.1 8.6,-3.5 l 9.2,-9.2 c 0.4,-0.4 0.8,-0.9 1.1,-1.3 L 455.4,283.9 c 4.7,-4.6 4.7,-12.3 0.1,-16.9 z"
         inkscape:connector-curvature="0"
         style="fill:#2f93ed" /><path
         id="XMLID_31_"
         class="st2"
         d="m 458.3,269.8 -9.2,-9.2 c -4.7,-4.7 -12.3,-4.7 -17,0 l -109,109 -52.8,-52.8 c -4.7,-4.7 -12.3,-4.7 -17,0 l -9.2,9.2 c -4.7,4.7 -4.7,12.3 0,17 l 60,60 c 0.3,0.5 0.7,0.9 1.1,1.3 l 9.2,9.2 c 2.4,2.4 5.5,3.4 8.6,3.5 3.1,0.1 6.2,-1.1 8.6,-3.5 l 9.2,-9.2 c 0.4,-0.4 0.8,-0.9 1.1,-1.3 L 458.2,286.7 c 4.8,-4.6 4.8,-12.2 0.1,-16.9 z"
         inkscape:connector-curvature="0"
         style="fill:#2f93ed" /><path
         id="XMLID_30_"
         class="st2"
         d="m 461.1,272.6 -9.2,-9.2 c -4.7,-4.7 -12.3,-4.7 -17,0 l -109,109 -52.8,-52.8 c -4.7,-4.7 -12.3,-4.7 -17,0 l -9.2,9.2 c -4.7,4.7 -4.7,12.3 0,17 l 60,60 c 0.3,0.5 0.7,0.9 1.1,1.3 l 9.2,9.2 c 2.4,2.4 5.5,3.4 8.6,3.5 3.1,0.1 6.2,-1.1 8.6,-3.5 l 9.2,-9.2 c 0.4,-0.4 0.8,-0.9 1.1,-1.3 L 461,289.5 c 4.8,-4.6 4.8,-12.2 0.1,-16.9 z"
         inkscape:connector-curvature="0"
         style="fill:#2f93ed" /><path
         id="XMLID_29_"
         class="st2"
         d="m 463.9,275.4 -9.2,-9.2 c -4.7,-4.7 -12.3,-4.7 -17,0 l -109,109 -52.7,-52.7 c -4.7,-4.7 -12.3,-4.7 -17,0 l -9.2,9.2 c -4.7,4.7 -4.7,12.3 0,17 l 60,60 c 0.3,0.5 0.7,0.9 1.1,1.3 l 9.2,9.2 c 2.4,2.4 5.5,3.4 8.6,3.5 3.1,0.1 6.2,-1.1 8.6,-3.5 l 9.2,-9.2 c 0.4,-0.4 0.8,-0.9 1.1,-1.3 L 463.9,292.4 c 4.7,-4.7 4.7,-12.3 0,-17 z"
         inkscape:connector-curvature="0"
         style="fill:#2f93ed" /><path
         id="XMLID_28_"
         class="st2"
         d="m 466.8,278.3 -9.2,-9.2 c -4.7,-4.7 -12.3,-4.7 -17,0 l -109,109 -52.8,-52.8 c -4.7,-4.7 -12.3,-4.7 -17,0 l -9.2,9.2 c -4.7,4.7 -4.7,12.3 0,17 l 60,60 c 0.3,0.5 0.7,0.9 1.1,1.3 l 9.2,9.2 c 2.4,2.4 5.5,3.4 8.6,3.5 3.1,0.1 6.2,-1.1 8.6,-3.5 l 9.2,-9.2 c 0.4,-0.4 0.8,-0.9 1.1,-1.3 L 466.7,295.2 c 4.7,-4.6 4.7,-12.3 0.1,-16.9 z"
         inkscape:connector-curvature="0"
         style="fill:#2f93ed" /><path
         id="XMLID_27_"
         class="st2"
         d="m 469.6,281.1 -9.2,-9.2 c -4.7,-4.7 -12.3,-4.7 -17,0 l -109,109 -52.8,-52.8 c -4.7,-4.7 -12.3,-4.7 -17,0 l -9.2,9.2 c -4.7,4.7 -4.7,12.3 0,17 l 60,60 c 0.3,0.5 0.7,0.9 1.1,1.3 l 9.2,9.2 c 2.4,2.4 5.5,3.4 8.6,3.5 3.1,0.1 6.2,-1.1 8.6,-3.5 l 9.2,-9.2 c 0.4,-0.4 0.8,-0.9 1.1,-1.3 L 469.5,298 c 4.8,-4.6 4.8,-12.3 0.1,-16.9 z"
         inkscape:connector-curvature="0"
         style="fill:#2f93ed" /><path
         id="XMLID_26_"
         class="st2"
         d="m 472.4,283.9 -9.2,-9.2 c -4.7,-4.7 -12.3,-4.7 -17,0 l -109,109 -52.8,-52.7 c -4.7,-4.7 -12.3,-4.7 -17,0 l -9.2,9.2 c -4.7,4.7 -4.7,12.3 0,17 l 60,60 c 0.3,0.5 0.7,0.9 1.1,1.3 l 9.2,9.2 c 2.4,2.4 5.5,3.4 8.6,3.5 3.1,0.1 6.2,-1.1 8.6,-3.5 l 9.2,-9.2 c 0.4,-0.4 0.8,-0.9 1.1,-1.3 L 472.3,300.9 c 4.8,-4.7 4.8,-12.3 0.1,-17 z"
         inkscape:connector-curvature="0"
         style="fill:#2f93ed" /><path
         id="XMLID_25_"
         class="st2"
         d="m 475.2,286.7 -9.2,-9.2 c -4.7,-4.7 -12.3,-4.7 -17,0 l -109,109 -52.8,-52.8 c -4.7,-4.7 -12.3,-4.7 -17,0 l -9.2,9.2 c -4.7,4.7 -4.7,12.3 0,17 l 60,60 c 0.3,0.5 0.7,0.9 1.1,1.3 l 9.2,9.2 c 2.4,2.4 5.5,3.4 8.6,3.5 3.1,0.1 6.2,-1.1 8.6,-3.5 l 9.2,-9.2 c 0.4,-0.4 0.8,-0.9 1.1,-1.3 L 475.1,303.6 c 4.8,-4.6 4.8,-12.2 0.1,-16.9 z"
         inkscape:connector-curvature="0"
         style="fill:#2f93ed" /><path
         id="XMLID_24_"
         class="st2"
         d="m 478.1,289.5 -9.2,-9.2 c -4.7,-4.7 -12.3,-4.7 -17,0 l -109,109 -52.8,-52.8 c -4.7,-4.7 -12.3,-4.7 -17,0 l -9.2,9.2 c -4.7,4.7 -4.7,12.3 0,17 l 60,60 c 0.3,0.5 0.7,0.9 1.1,1.3 l 9.2,9.2 c 2.4,2.4 5.5,3.4 8.6,3.5 3.1,0.1 6.2,-1.1 8.6,-3.5 l 9.2,-9.2 c 0.4,-0.4 0.8,-0.9 1.1,-1.3 L 478,306.4 c 4.7,-4.5 4.7,-12.2 0.1,-16.9 z"
         inkscape:connector-curvature="0"
         style="fill:#2f93ed" /><path
         id="XMLID_23_"
         class="st2"
         d="m 480.9,292.4 -9.2,-9.2 c -4.7,-4.7 -12.3,-4.7 -17,0 l -109,109 -52.8,-52.8 c -4.7,-4.7 -12.3,-4.7 -17,0 l -9.2,9.2 c -4.7,4.7 -4.7,12.3 0,17 l 60,60 c 0.3,0.5 0.7,0.9 1.1,1.3 l 9.2,9.2 c 2.4,2.4 5.5,3.4 8.6,3.5 3.1,0.1 6.2,-1.1 8.6,-3.5 l 9.2,-9.2 c 0.4,-0.4 0.8,-0.9 1.1,-1.3 L 480.8,309.3 c 4.7,-4.6 4.7,-12.3 0.1,-16.9 z"
         inkscape:connector-curvature="0"
         style="fill:#2f93ed" /><path
         id="XMLID_22_"
         class="st2"
         d="m 483.7,295.2 -9.2,-9.2 c -4.7,-4.7 -12.3,-4.7 -17,0 l -109,109 -52.8,-52.8 c -4.7,-4.7 -12.3,-4.7 -17,0 l -9.2,9.2 c -4.7,4.7 -4.7,12.3 0,17 l 60,60 c 0.3,0.5 0.7,0.9 1.1,1.3 l 9.2,9.2 c 2.4,2.4 5.5,3.4 8.6,3.5 3.1,0.1 6.2,-1.1 8.6,-3.5 l 9.2,-9.2 c 0.4,-0.4 0.8,-0.9 1.1,-1.3 L 483.6,312.1 c 4.8,-4.6 4.8,-12.2 0.1,-16.9 z"
         inkscape:connector-curvature="0"
         style="fill:#2f93ed" /><path
         id="XMLID_21_"
         class="st2"
         d="m 486.5,298 -9.2,-9.2 c -4.7,-4.7 -12.3,-4.7 -17,0 l -109,109 -52.8,-52.8 c -4.7,-4.7 -12.3,-4.7 -17,0 l -9.2,9.2 c -4.7,4.7 -4.7,12.3 0,17 l 60,60 c 0.3,0.5 0.7,0.9 1.1,1.3 l 9.2,9.2 c 2.4,2.4 5.5,3.4 8.6,3.5 3.1,0.1 6.2,-1.1 8.6,-3.5 l 9.2,-9.2 c 0.4,-0.4 0.8,-0.9 1.1,-1.3 L 486.5,315 c 4.7,-4.7 4.7,-12.3 0,-17 z"
         inkscape:connector-curvature="0"
         style="fill:#2f93ed" /><path
         id="XMLID_20_"
         class="st2"
         d="m 489.3,300.8 -9.2,-9.2 c -4.7,-4.7 -12.3,-4.7 -17,0 l -109,109 -52.8,-52.8 c -4.7,-4.7 -12.3,-4.7 -17,0 l -9.2,9.2 c -4.7,4.7 -4.7,12.3 0,17 l 60,60 c 0.3,0.5 0.7,0.9 1.1,1.3 l 9.2,9.2 c 2.4,2.4 5.5,3.4 8.6,3.5 3.1,0.1 6.2,-1.1 8.6,-3.5 l 9.2,-9.2 c 0.4,-0.4 0.8,-0.9 1.1,-1.3 L 489.2,317.7 c 4.8,-4.6 4.8,-12.2 0.1,-16.9 z"
         inkscape:connector-curvature="0"
         style="fill:#2f93ed" /><path
         id="XMLID_19_"
         class="st2"
         d="m 492.2,303.7 -9.2,-9.2 c -4.7,-4.7 -12.3,-4.7 -17,0 l -109,109 -52.8,-52.8 c -4.7,-4.7 -12.3,-4.7 -17,0 l -9.2,9.2 c -4.7,4.7 -4.7,12.3 0,17 l 60,60 c 0.3,0.5 0.7,0.9 1.1,1.3 l 9.2,9.2 c 2.4,2.4 5.5,3.4 8.6,3.5 3.1,0.1 6.2,-1.1 8.6,-3.5 l 9.2,-9.2 c 0.4,-0.4 0.8,-0.9 1.1,-1.3 L 492.1,320.6 c 4.7,-4.6 4.7,-12.3 0.1,-16.9 z"
         inkscape:connector-curvature="0"
         style="fill:#2f93ed" /><path
         id="XMLID_18_"
         class="st2"
         d="m 495,306.5 -9.2,-9.2 c -4.7,-4.7 -12.3,-4.7 -17,0 l -109,109 -52.8,-52.8 c -4.7,-4.7 -12.3,-4.7 -17,0 l -9.2,9.2 c -4.7,4.7 -4.7,12.3 0,17 l 60,60 c 0.3,0.5 0.7,0.9 1.1,1.3 l 9.2,9.2 c 2.4,2.4 5.5,3.4 8.6,3.5 3.1,0.1 6.2,-1.1 8.6,-3.5 l 9.2,-9.2 c 0.4,-0.4 0.8,-0.9 1.1,-1.3 L 495,323.5 c 4.7,-4.7 4.7,-12.3 0,-17 z"
         inkscape:connector-curvature="0"
         style="fill:#2f93ed" /><path
         id="XMLID_17_"
         class="st2"
         d="m 497.8,309.3 -9.2,-9.2 c -4.7,-4.7 -12.3,-4.7 -17,0 l -109,109 -52.8,-52.8 c -4.7,-4.7 -12.3,-4.7 -17,0 l -9.2,9.2 c -4.7,4.7 -4.7,12.3 0,17 l 60,60 c 0.3,0.5 0.7,0.9 1.1,1.3 l 9.2,9.2 c 2.4,2.4 5.5,3.4 8.6,3.5 3.1,0.1 6.2,-1.1 8.6,-3.5 l 9.2,-9.2 c 0.4,-0.4 0.8,-0.9 1.1,-1.3 L 497.7,326.2 c 4.8,-4.6 4.8,-12.2 0.1,-16.9 z"
         inkscape:connector-curvature="0"
         style="fill:#2f93ed" /><path
         id="XMLID_16_"
         class="st2"
         d="m 500.6,312.1 -9.2,-9.2 c -4.7,-4.7 -12.3,-4.7 -17,0 l -109,109 -52.8,-52.8 c -4.7,-4.7 -12.3,-4.7 -17,0 l -9.2,9.2 c -4.7,4.7 -4.7,12.3 0,17 l 60,60 c 0.3,0.5 0.7,0.9 1.1,1.3 l 9.2,9.2 c 2.4,2.4 5.5,3.4 8.6,3.5 3.1,0.1 6.2,-1.1 8.6,-3.5 l 9.2,-9.2 c 0.4,-0.4 0.8,-0.9 1.1,-1.3 L 500.5,329 c 4.8,-4.6 4.8,-12.2 0.1,-16.9 z"
         inkscape:connector-curvature="0"
         style="fill:#2f93ed" /><path
         id="XMLID_15_"
         class="st2"
         d="m 503.5,315 -9.2,-9.2 c -4.7,-4.7 -12.3,-4.7 -17,0 l -109,109 -52.8,-52.8 c -4.7,-4.7 -12.3,-4.7 -17,0 l -9.2,9.2 c -4.7,4.7 -4.7,12.3 0,17 l 60,60 c 0.3,0.5 0.7,0.9 1.1,1.3 l 9.2,9.2 c 2.4,2.4 5.5,3.4 8.6,3.5 3.1,0.1 6.2,-1.1 8.6,-3.5 l 9.2,-9.2 c 0.4,-0.4 0.8,-0.9 1.1,-1.3 L 503.4,331.9 c 4.7,-4.6 4.7,-12.3 0.1,-16.9 z"
         inkscape:connector-curvature="0"
         style="fill:#2f93ed" /><path
         id="XMLID_14_"
         class="st2"
         d="m 506.3,317.8 -9.2,-9.2 c -4.7,-4.7 -12.3,-4.7 -17,0 l -109,109 -52.8,-52.8 c -4.7,-4.7 -12.3,-4.7 -17,0 l -9.2,9.2 c -4.7,4.7 -4.7,12.3 0,17 l 60,60 c 0.3,0.5 0.7,0.9 1.1,1.3 l 9.2,9.2 c 2.4,2.4 5.5,3.4 8.6,3.5 3.1,0.1 6.2,-1.1 8.6,-3.5 l 9.2,-9.2 c 0.4,-0.4 0.8,-0.9 1.1,-1.3 L 506.2,334.7 c 4.7,-4.6 4.7,-12.3 0.1,-16.9 z"
         inkscape:connector-curvature="0"
         style="fill:#2f93ed" /><path
         id="XMLID_13_"
         class="st2"
         d="m 509.1,320.6 -9.2,-9.2 c -4.7,-4.7 -12.3,-4.7 -17,0 l -109,109 -52.8,-52.8 c -4.7,-4.7 -12.3,-4.7 -17,0 l -9.2,9.2 c -4.7,4.7 -4.7,12.3 0,17 l 60,60 c 0.3,0.5 0.7,0.9 1.1,1.3 l 9.2,9.2 c 2.4,2.4 5.5,3.4 8.6,3.5 3.1,0.1 6.2,-1.1 8.6,-3.5 l 9.2,-9.2 c 0.4,-0.4 0.8,-0.9 1.1,-1.3 L 509,337.5 c 4.8,-4.6 4.8,-12.2 0.1,-16.9 z"
         inkscape:connector-curvature="0"
         style="fill:#2f93ed" /><path
         id="XMLID_12_"
         class="st2"
         d="m 511.9,323.4 -9.2,-9.2 c -4.7,-4.7 -12.3,-4.7 -17,0 l -109,109 -52.7,-52.7 c -4.7,-4.7 -12.3,-4.7 -17,0 l -9.2,9.2 c -4.7,4.7 -4.7,12.3 0,17 l 60,60 c 0.3,0.5 0.7,0.9 1.1,1.3 l 9.2,9.2 c 2.4,2.4 5.5,3.4 8.6,3.5 3.1,0.1 6.2,-1.1 8.6,-3.5 l 9.2,-9.2 c 0.4,-0.4 0.8,-0.9 1.1,-1.3 L 511.9,340.4 c 4.7,-4.7 4.7,-12.3 0,-17 z"
         inkscape:connector-curvature="0"
         style="fill:#2f93ed" /><path
         id="XMLID_11_"
         class="st2"
         d="m 514.8,326.2 -9.2,-9.2 c -4.7,-4.7 -12.3,-4.7 -17,0 l -109,109 -52.8,-52.8 c -4.7,-4.7 -12.3,-4.7 -17,0 l -9.2,9.2 c -4.7,4.7 -4.7,12.3 0,17 l 60,60 c 0.3,0.5 0.7,0.9 1.1,1.3 l 9.2,9.2 c 2.4,2.4 5.5,3.4 8.6,3.5 3.1,0.1 6.2,-1.1 8.6,-3.5 l 9.2,-9.2 c 0.4,-0.4 0.8,-0.9 1.1,-1.3 L 514.7,343.1 c 4.7,-4.6 4.7,-12.2 0.1,-16.9 z"
         inkscape:connector-curvature="0"
         style="fill:#2f93ed" /><path
         id="XMLID_10_"
         class="st2"
         d="m 517.6,329.1 -9.2,-9.2 c -4.7,-4.7 -12.3,-4.7 -17,0 l -109,109 -52.8,-52.8 c -4.7,-4.7 -12.3,-4.7 -17,0 l -9.2,9.2 c -4.7,4.7 -4.7,12.3 0,17 l 60,60 c 0.3,0.5 0.7,0.9 1.1,1.3 l 9.2,9.2 c 2.4,2.4 5.5,3.4 8.6,3.5 3.1,0.1 6.2,-1.1 8.6,-3.5 l 9.2,-9.2 c 0.4,-0.4 0.8,-0.9 1.1,-1.3 L 517.6,346 c 4.6,-4.6 4.6,-12.3 0,-16.9 z"
         inkscape:connector-curvature="0"
         style="fill:#2f93ed" /><path
         id="XMLID_9_"
         class="st2"
         d="m 520.4,331.9 -9.2,-9.2 c -4.7,-4.7 -12.3,-4.7 -17,0 l -109,109 -52.8,-52.8 c -4.7,-4.7 -12.3,-4.7 -17,0 l -9.2,9.2 c -4.7,4.7 -4.7,12.3 0,17 l 60,60 c 0.3,0.5 0.7,0.9 1.1,1.3 l 9.2,9.2 c 2.4,2.4 5.5,3.4 8.6,3.5 3.1,0.1 6.2,-1.1 8.6,-3.5 l 9.2,-9.2 c 0.4,-0.4 0.8,-0.9 1.1,-1.3 L 520.3,348.8 c 4.8,-4.6 4.8,-12.2 0.1,-16.9 z"
         inkscape:connector-curvature="0"
         style="fill:#2f93ed" /><path
         id="XMLID_7_"
         class="st2"
         d="m 523.2,334.7 -9.2,-9.2 c -4.7,-4.7 -12.3,-4.7 -17,0 l -109,109 -52.8,-52.8 c -4.7,-4.7 -12.3,-4.7 -17,0 l -9.2,9.2 c -4.7,4.7 -4.7,12.3 0,17 l 60,60 c 0.3,0.5 0.7,0.9 1.1,1.3 l 9.2,9.2 c 2.4,2.4 5.5,3.5 8.6,3.5 3.1,0 6.2,-1.1 8.6,-3.5 l 9.2,-9.2 c 0.4,-0.4 0.8,-0.9 1.1,-1.3 L 523.1,351.6 c 4.8,-4.6 4.8,-12.2 0.1,-16.9 z"
         inkscape:connector-curvature="0"
         style="fill:#2f93ed" /></g></g><path
     id="XMLID_81_"
     class="st3"
     d="m 172.39513,54.4655 -6.22463,-6.22463 c -3.17997,-3.17997 -8.32205,-3.17997 -11.50203,0 L 80.920167,121.98918 45.196214,86.26523 c -3.179973,-3.17997 -8.322056,-3.17997 -11.502029,0 l -6.224628,6.22463 c -3.179973,3.17997 -3.179973,8.32205 0,11.50203 l 40.595401,40.5954 c 0.202977,0.33829 0.473613,0.60893 0.744249,0.87956 l 6.224628,6.22463 c 1.623816,1.62382 3.721245,2.36807 5.818673,2.36807 2.097429,0 4.194858,-0.74425 5.818674,-2.36807 l 6.224628,-6.22463 c 0.270636,-0.27063 0.541272,-0.60893 0.744249,-0.87956 L 172.32747,65.89987 c 3.24763,-3.11231 3.24763,-8.2544 0.0677,-11.43437 z"
     inkscape:connector-curvature="0"
     style="fill:#efef2e;fill-opacity:1" /></svg>