<?xml version="1.0" encoding="UTF-8" standalone="no"?>
<!-- Generator: Adobe Illustrator 19.0.0, SVG Export Plug-In . SVG Version: 6.00 Build 0)  -->

<svg
   xmlns:dc="http://purl.org/dc/elements/1.1/"
   xmlns:cc="http://creativecommons.org/ns#"
   xmlns:rdf="http://www.w3.org/1999/02/22-rdf-syntax-ns#"
   xmlns:svg="http://www.w3.org/2000/svg"
   xmlns="http://www.w3.org/2000/svg"
   xmlns:xlink="http://www.w3.org/1999/xlink"
   xmlns:sodipodi="http://sodipodi.sourceforge.net/DTD/sodipodi-0.dtd"
   xmlns:inkscape="http://www.inkscape.org/namespaces/inkscape"
   version="1.1"
   id="Layer_1"
   x="0px"
   y="0px"
   viewBox="0 0 200 200"
   xml:space="preserve"
   inkscape:version="0.91 r13725"
   sodipodi:docname="create.svg"
   width="200"
   height="200"><metadata
     id="metadata79"><rdf:RDF><cc:Work
         rdf:about=""><dc:format>image/svg+xml</dc:format><dc:type
           rdf:resource="http://purl.org/dc/dcmitype/StillImage" /><dc:title></dc:title></cc:Work></rdf:RDF></metadata><defs
     id="defs77" /><sodipodi:namedview
     pagecolor="#ffffff"
     bordercolor="#666666"
     borderopacity="1"
     objecttolerance="10"
     gridtolerance="10"
     guidetolerance="10"
     inkscape:pageopacity="0"
     inkscape:pageshadow="2"
     inkscape:window-width="1536"
     inkscape:window-height="801"
     id="namedview75"
     showgrid="false"
     inkscape:zoom="0.85736697"
     inkscape:cx="528.72867"
     inkscape:cy="232.86407"
     inkscape:window-x="-8"
     inkscape:window-y="-8"
     inkscape:window-maximized="1"
     inkscape:current-layer="Layer_1" /><style
     type="text/css"
     id="style3">
	.st0{fill:#A6C4FF;}
	.st1{clip-path:url(#createBackground_2_);}
	.st2{fill:#2F93ED;}
	.st3{fill:#EFEF2E;}
</style><circle
     id="createBackground"
     class="st0"
     cx="100"
     cy="100"
     style="fill:#a6c4ff"
     r="100" /><g
     id="XMLID_68_"
     transform="matrix(0.67658997,0,0,0.67658997,-14.343705,-6.22463)"><defs
       id="defs7"><circle
         id="createBackground_1_"
         cx="169"
         cy="157"
         r="147.8" /></defs><clipPath
       id="createBackground_2_"><use
         xlink:href="#createBackground_1_"
         style="overflow:visible"
         id="use11"
         x="0"
         y="0"
         width="100%"
         height="100%" /></clipPath><g
       id="XMLID_3_"
       class="st1"
       clip-path="url(#createBackground_2_)"><path
         id="XMLID_9_"
         class="st2"
         d="m 281,139 -93,0 0,-94 c 0,-6.6 -5.9,-12 -12.5,-12 l -13,0 C 155.9,33 151,38.4 151,45 l 0,94 -93.9,0 C 50.5,139 45,143.9 45,150.5 l 0,13 c 0,6.6 5.5,12.5 12.1,12.5 l 93.9,0 0,93 c 0,6.6 4.9,12 11.5,12 l 13,0 c 6.6,0 12.5,-5.4 12.5,-12 l 0,-93 93,0 c 6.6,0 12,-5.9 12,-12.5 l 0,-13 c 0,-6.6 -5.4,-11.5 -12,-11.5 z"
         inkscape:connector-curvature="0"
         style="fill:#2f93ed" /><path
         id="XMLID_67_"
         class="st2"
         d="m 283.8,142 -92.8,0 0,-94.1 C 191,41.3 185,36 178.4,36 l -13,0 C 158.8,36 154,41.3 154,47.9 l 0,94.1 -94.1,0 C 53.3,142 48,146.7 48,153.3 l 0,13 c 0,6.6 5.3,12.7 11.9,12.7 l 94.1,0 0,92.8 c 0,6.6 4.8,12.2 11.4,12.2 l 13,0 c 6.6,0 12.6,-5.6 12.6,-12.2 l 0,-92.8 92.8,0 c 6.6,0 12.2,-6.1 12.2,-12.7 l 0,-13 c 0,-6.6 -5.6,-11.3 -12.2,-11.3 z"
         inkscape:connector-curvature="0"
         style="fill:#2f93ed" /><path
         id="XMLID_66_"
         class="st2"
         d="m 286.7,145 -92.7,0 0,-94.3 C 194,44.1 187.8,39 181.2,39 l -13,0 C 161.6,39 157,44.1 157,50.7 l 0,94.3 -94.3,0 C 56.1,145 51,149.6 51,156.2 l 0,13 c 0,6.6 5.1,12.8 11.7,12.8 l 94.3,0 0,92.7 c 0,6.6 4.6,12.3 11.2,12.3 l 13,0 c 6.6,0 12.8,-5.7 12.8,-12.3 l 0,-92.7 92.7,0 c 6.6,0 12.3,-6.2 12.3,-12.8 l 0,-13 c 0,-6.6 -5.7,-11.2 -12.3,-11.2 z"
         inkscape:connector-curvature="0"
         style="fill:#2f93ed" /><path
         id="XMLID_65_"
         class="st2"
         d="m 289.5,148 -92.5,0 0,-94.4 C 197,47 190.7,42 184.1,42 l -13,0 C 164.5,42 160,47 160,53.6 l 0,94.4 -94.4,0 C 59,148 54,152.4 54,159 l 0,13 c 0,6.6 5,13 11.6,13 l 94.4,0 0,92.5 c 0,6.6 4.5,12.5 11.1,12.5 l 13,0 c 6.6,0 12.9,-5.9 12.9,-12.5 l 0,-92.5 92.5,0 c 6.6,0 12.5,-6.4 12.5,-13 l 0,-13 c 0,-6.6 -5.9,-11 -12.5,-11 z"
         inkscape:connector-curvature="0"
         style="fill:#2f93ed" /><path
         id="XMLID_64_"
         class="st2"
         d="m 292.4,150 -93.4,0 0,-93.6 C 199,49.8 193.5,44 186.9,44 l -13,0 C 167.3,44 162,49.8 162,56.4 l 0,93.6 -93.6,0 C 61.8,150 56,155.3 56,161.9 l 0,13 c 0,6.6 5.8,12.1 12.4,12.1 l 93.6,0 0,93.4 c 0,6.6 5.3,11.6 11.9,11.6 l 13,0 c 6.6,0 12.1,-5 12.1,-11.6 l 0,-93.4 93.4,0 c 6.6,0 11.6,-5.5 11.6,-12.1 l 0,-13 c 0,-6.6 -5,-11.9 -11.6,-11.9 z"
         inkscape:connector-curvature="0"
         style="fill:#2f93ed" /><path
         id="XMLID_63_"
         class="st2"
         d="m 295.2,153 -93.2,0 0,-93.7 C 202,52.7 196.4,47 189.8,47 l -13,0 C 170.2,47 165,52.7 165,59.3 l 0,93.7 -93.7,0 C 64.7,153 59,158.1 59,164.7 l 0,13 c 0,6.6 5.7,12.3 12.3,12.3 l 93.7,0 0,93.2 c 0,6.6 5.2,11.8 11.8,11.8 l 13,0 c 6.6,0 12.2,-5.2 12.2,-11.8 l 0,-93.2 93.2,0 c 6.6,0 11.8,-5.7 11.8,-12.3 l 0,-13 c 0,-6.6 -5.2,-11.7 -11.8,-11.7 z"
         inkscape:connector-curvature="0"
         style="fill:#2f93ed" /><path
         id="XMLID_62_"
         class="st2"
         d="m 298.1,156 -93.1,0 0,-93.9 C 205,55.5 199.2,50 192.6,50 l -13,0 C 173,50 168,55.5 168,62.1 l 0,93.9 -93.9,0 C 67.5,156 62,161 62,167.6 l 0,13 c 0,6.6 5.5,12.4 12.1,12.4 l 93.9,0 0,93.1 c 0,6.6 5,11.9 11.6,11.9 l 13,0 c 6.6,0 12.4,-5.3 12.4,-11.9 l 0,-93.1 93.1,0 c 6.6,0 11.9,-5.8 11.9,-12.4 l 0,-13 C 310,161 304.7,156 298.1,156 Z"
         inkscape:connector-curvature="0"
         style="fill:#2f93ed" /><path
         id="XMLID_61_"
         class="st2"
         d="m 300.9,159 -92.9,0 0,-94 c 0,-6.6 -5.9,-12 -12.5,-12 l -13,0 C 175.9,53 171,58.4 171,65 l 0,94 -94,0 c -6.6,0 -12,4.8 -12,11.4 l 0,13 c 0,6.6 5.4,12.6 12,12.6 l 94,0 0,92.9 c 0,6.6 4.9,12.1 11.5,12.1 l 13,0 c 6.6,0 12.5,-5.5 12.5,-12.1 l 0,-92.9 92.9,0 c 6.6,0 12.1,-6 12.1,-12.6 l 0,-13 c 0,-6.6 -5.5,-11.4 -12.1,-11.4 z"
         inkscape:connector-curvature="0"
         style="fill:#2f93ed" /><path
         id="XMLID_60_"
         class="st2"
         d="m 303.8,162 -92.8,0 0,-94.2 C 211,61.2 204.9,56 198.3,56 l -13,0 C 178.7,56 174,61.2 174,67.8 l 0,94.2 -94.2,0 C 73.2,162 68,166.7 68,173.3 l 0,13 c 0,6.6 5.2,12.7 11.8,12.7 l 94.2,0 0,92.8 c 0,6.6 4.7,12.2 11.3,12.2 l 13,0 c 6.6,0 12.7,-5.6 12.7,-12.2 l 0,-92.8 92.8,0 c 6.6,0 12.2,-6.1 12.2,-12.7 l 0,-13 c 0,-6.6 -5.6,-11.3 -12.2,-11.3 z"
         inkscape:connector-curvature="0"
         style="fill:#2f93ed" /><path
         id="XMLID_59_"
         class="st2"
         d="m 306.6,165 -92.6,0 0,-94.3 C 214,64.1 207.8,59 201.2,59 l -13,0 C 181.6,59 177,64.1 177,70.7 l 0,94.3 -94.3,0 C 76.1,165 71,169.5 71,176.1 l 0,13 c 0,6.6 5.1,12.9 11.7,12.9 l 94.3,0 0,92.6 c 0,6.6 4.6,12.4 11.2,12.4 l 13,0 c 6.6,0 12.8,-5.8 12.8,-12.4 l 0,-92.6 92.6,0 c 6.6,0 12.4,-6.3 12.4,-12.9 l 0,-13 c 0,-6.6 -5.8,-11.1 -12.4,-11.1 z"
         inkscape:connector-curvature="0"
         style="fill:#2f93ed" /><path
         id="XMLID_58_"
         class="st2"
         d="m 309.5,167 -93.5,0 0,-93.5 C 216,66.9 210.6,61 204,61 l -13,0 c -6.6,0 -12,5.9 -12,12.5 l 0,93.5 -93.5,0 C 78.9,167 73,172.4 73,179 l 0,13 c 0,6.6 5.9,12 12.5,12 l 93.5,0 0,93.4 c 0,6.6 5.4,11.6 12,11.6 l 13,0 c 6.6,0 12,-5 12,-11.6 l 0,-93.4 93.5,0 c 6.6,0 11.5,-5.4 11.5,-12 l 0,-13 c 0,-6.6 -4.9,-12 -11.5,-12 z"
         inkscape:connector-curvature="0"
         style="fill:#2f93ed" /><path
         id="XMLID_57_"
         class="st2"
         d="m 312.3,170 -93.3,0 0,-93.7 C 219,69.7 213.4,64 206.8,64 l -13,0 C 187.2,64 182,69.7 182,76.3 l 0,93.7 -93.6,0 C 81.8,170 76,175.2 76,181.8 l 0,13 c 0,6.6 5.8,12.2 12.4,12.2 l 93.6,0 0,93.3 c 0,6.6 5.2,11.7 11.8,11.7 l 13,0 c 6.6,0 12.2,-5.1 12.2,-11.7 l 0,-93.3 93.3,0 c 6.6,0 11.7,-5.6 11.7,-12.2 l 0,-13 c 0,-6.6 -5.1,-11.8 -11.7,-11.8 z"
         inkscape:connector-curvature="0"
         style="fill:#2f93ed" /><path
         id="XMLID_56_"
         class="st2"
         d="m 315.2,173 -93.2,0 0,-93.8 C 222,72.6 216.3,67 209.7,67 l -13,0 C 190.1,67 185,72.6 185,79.2 l 0,93.8 -93.8,0 C 84.6,173 79,178.1 79,184.7 l 0,13 c 0,6.6 5.6,12.3 12.2,12.3 l 93.8,0 0,93.1 c 0,6.6 5.1,11.9 11.7,11.9 l 13,0 c 6.6,0 12.3,-5.3 12.3,-11.9 l 0,-93.1 93.2,0 c 6.6,0 11.8,-5.7 11.8,-12.3 l 0,-13 c 0,-6.6 -5.2,-11.7 -11.8,-11.7 z"
         inkscape:connector-curvature="0"
         style="fill:#2f93ed" /><path
         id="XMLID_55_"
         class="st2"
         d="m 318,176 -93,0 0,-94 c 0,-6.6 -5.9,-12 -12.5,-12 l -13,0 C 192.9,70 188,75.4 188,82 l 0,94 -93.9,0 C 87.5,176 82,180.9 82,187.5 l 0,13 c 0,6.6 5.5,12.5 12.1,12.5 l 93.9,0 0,93 c 0,6.6 4.9,12 11.5,12 l 13,0 c 6.6,0 12.5,-5.4 12.5,-12 l 0,-93 93,0 c 6.6,0 12,-5.9 12,-12.5 l 0,-13 c 0,-6.6 -5.4,-11.5 -12,-11.5 z"
         inkscape:connector-curvature="0"
         style="fill:#2f93ed" /><path
         id="XMLID_54_"
         class="st2"
         d="m 320.9,179 -92.9,0 0,-94.1 C 228,78.3 222,73 215.4,73 l -13,0 C 195.8,73 191,78.3 191,84.9 l 0,94.1 -94.1,0 C 90.3,179 85,183.8 85,190.4 l 0,13 c 0,6.6 5.3,12.6 11.9,12.6 l 94.1,0 0,92.8 c 0,6.6 4.8,12.2 11.4,12.2 l 13,0 c 6.6,0 12.6,-5.6 12.6,-12.2 l 0,-92.8 92.9,0 c 6.6,0 12.1,-6 12.1,-12.6 l 0,-13 c 0,-6.6 -5.5,-11.4 -12.1,-11.4 z"
         inkscape:connector-curvature="0"
         style="fill:#2f93ed" /><path
         id="XMLID_53_"
         class="st2"
         d="m 323.7,182 -92.7,0 0,-94.3 C 231,81.1 224.8,76 218.2,76 l -13,0 C 198.6,76 194,81.1 194,87.7 l 0,94.3 -94.2,0 C 93.2,182 88,186.6 88,193.2 l 0,13 c 0,6.6 5.2,12.8 11.8,12.8 l 94.2,0 0,92.7 c 0,6.6 4.6,12.3 11.2,12.3 l 13,0 c 6.6,0 12.8,-5.7 12.8,-12.3 l 0,-92.7 92.7,0 c 6.6,0 12.3,-6.2 12.3,-12.8 l 0,-13 c 0,-6.6 -5.7,-11.2 -12.3,-11.2 z"
         inkscape:connector-curvature="0"
         style="fill:#2f93ed" /><path
         id="XMLID_52_"
         class="st2"
         d="m 326.6,185 -92.6,0 0,-94.4 C 234,84 227.7,79 221.1,79 l -13,0 C 201.5,79 197,84 197,90.6 l 0,94.4 -94.4,0 C 96,185 91,189.5 91,196.1 l 0,13 c 0,6.6 5,12.9 11.6,12.9 l 94.4,0 0,92.5 c 0,6.6 4.5,12.5 11.1,12.5 l 13,0 c 6.6,0 12.9,-5.9 12.9,-12.5 l 0,-92.5 92.6,0 c 6.6,0 12.4,-6.3 12.4,-12.9 l 0,-13 c 0,-6.6 -5.8,-11.1 -12.4,-11.1 z"
         inkscape:connector-curvature="0"
         style="fill:#2f93ed" /><path
         id="XMLID_51_"
         class="st2"
         d="m 329.4,187 -93.4,0 0,-93.6 C 236,86.8 230.5,81 223.9,81 l -13,0 C 204.3,81 199,86.8 199,93.4 l 0,93.6 -93.5,0 C 98.9,187 93,192.3 93,198.9 l 0,13 c 0,6.6 5.9,12.1 12.5,12.1 l 93.5,0 0,93.4 c 0,6.6 5.3,11.6 11.9,11.6 l 13,0 c 6.6,0 12.1,-5 12.1,-11.6 l 0,-93.4 93.4,0 c 6.6,0 11.6,-5.5 11.6,-12.1 l 0,-13 c 0,-6.6 -5,-11.9 -11.6,-11.9 z"
         inkscape:connector-curvature="0"
         style="fill:#2f93ed" /><path
         id="XMLID_50_"
         class="st2"
         d="m 332.3,190 -93.3,0 0,-93.7 C 239,89.7 233.4,84 226.8,84 l -13,0 C 207.2,84 202,89.7 202,96.3 l 0,93.7 -93.7,0 c -6.6,0 -12.3,5.2 -12.3,11.8 l 0,13 c 0,6.6 5.7,12.2 12.3,12.2 l 93.7,0 0,93.2 c 0,6.6 5.2,11.8 11.8,11.8 l 13,0 c 6.6,0 12.2,-5.2 12.2,-11.8 l 0,-93.2 93.3,0 c 6.6,0 11.7,-5.6 11.7,-12.2 l 0,-13 c 0,-6.6 -5.1,-11.8 -11.7,-11.8 z"
         inkscape:connector-curvature="0"
         style="fill:#2f93ed" /><path
         id="XMLID_49_"
         class="st2"
         d="m 335.1,193 -93.1,0 0,-93.9 C 242,92.5 236.2,87 229.6,87 l -13,0 C 210,87 205,92.5 205,99.1 l 0,93.9 -93.8,0 c -6.6,0 -12.2,5 -12.2,11.6 l 0,13 c 0,6.6 5.6,12.4 12.2,12.4 l 93.8,0 0,93.1 c 0,6.6 5,11.9 11.6,11.9 l 13,0 c 6.6,0 12.4,-5.3 12.4,-11.9 l 0,-93.1 93.1,0 c 6.6,0 11.9,-5.8 11.9,-12.4 l 0,-13 C 347,198 341.7,193 335.1,193 Z"
         inkscape:connector-curvature="0"
         style="fill:#2f93ed" /><path
         id="XMLID_48_"
         class="st2"
         d="m 337.9,196 -92.9,0 0,-94 c 0,-6.6 -5.9,-12 -12.5,-12 l -13,0 c -6.6,0 -11.5,5.4 -11.5,12 l 0,94 -94,0 c -6.6,0 -12,4.8 -12,11.4 l 0,13 c 0,6.6 5.4,12.6 12,12.6 l 94,0 0,92.9 c 0,6.6 4.9,12.1 11.5,12.1 l 13,0 c 6.6,0 12.5,-5.5 12.5,-12.1 l 0,-92.9 92.9,0 c 6.6,0 12.1,-6 12.1,-12.6 l 0,-13 c 0,-6.6 -5.5,-11.4 -12.1,-11.4 z"
         inkscape:connector-curvature="0"
         style="fill:#2f93ed" /><path
         id="XMLID_47_"
         class="st2"
         d="m 340.8,199 -92.8,0 0,-94.2 C 248,98.2 241.9,93 235.3,93 l -13,0 c -6.6,0 -11.3,5.2 -11.3,11.8 l 0,94.2 -94.2,0 c -6.6,0 -11.8,4.7 -11.8,11.3 l 0,13 c 0,6.6 5.2,12.7 11.8,12.7 l 94.2,0 0,92.8 c 0,6.6 4.7,12.2 11.3,12.2 l 13,0 c 6.6,0 12.7,-5.6 12.7,-12.2 l 0,-92.8 92.8,0 c 6.6,0 12.2,-6.1 12.2,-12.7 l 0,-13 c 0,-6.6 -5.6,-11.3 -12.2,-11.3 z"
         inkscape:connector-curvature="0"
         style="fill:#2f93ed" /><path
         id="XMLID_46_"
         class="st2"
         d="m 343.6,202 -92.6,0 0,-94.3 C 251,101.1 244.8,96 238.2,96 l -13,0 c -6.6,0 -11.2,5.1 -11.2,11.7 l 0,94.3 -94.3,0 c -6.6,0 -11.7,4.5 -11.7,11.1 l 0,13 c 0,6.6 5.1,12.9 11.7,12.9 l 94.3,0 0,92.6 c 0,6.6 4.6,12.4 11.2,12.4 l 13,0 c 6.6,0 12.8,-5.8 12.8,-12.4 l 0,-92.6 92.6,0 c 6.6,0 12.4,-6.3 12.4,-12.9 l 0,-13 c 0,-6.6 -5.8,-11.1 -12.4,-11.1 z"
         inkscape:connector-curvature="0"
         style="fill:#2f93ed" /><path
         id="XMLID_45_"
         class="st2"
         d="m 346.5,204 -93.5,0 0,-93.5 C 253,103.9 247.6,98 241,98 l -13,0 c -6.6,0 -12,5.9 -12,12.5 l 0,93.5 -93.5,0 c -6.6,0 -12.5,5.4 -12.5,12 l 0,13 c 0,6.6 5.9,12 12.5,12 l 93.5,0 0,93.5 c 0,6.6 5.4,11.5 12,11.5 l 13,0 c 6.6,0 12,-4.9 12,-11.5 l 0,-93.5 93.5,0 c 6.6,0 11.5,-5.4 11.5,-12 l 0,-13 c 0,-6.6 -4.9,-12 -11.5,-12 z"
         inkscape:connector-curvature="0"
         style="fill:#2f93ed" /><path
         id="XMLID_44_"
         class="st2"
         d="m 349.3,207 -93.3,0 0,-93.6 c 0,-6.6 -5.5,-12.4 -12.1,-12.4 l -13,0 c -6.6,0 -11.9,5.8 -11.9,12.4 l 0,93.6 -93.6,0 c -6.6,0 -12.4,5.2 -12.4,11.8 l 0,13 c 0,6.6 5.8,12.2 12.4,12.2 l 93.6,0 0,93.3 c 0,6.6 5.3,11.7 11.9,11.7 l 13,0 c 6.6,0 12.1,-5.1 12.1,-11.7 l 0,-93.3 93.3,0 c 6.6,0 11.7,-5.6 11.7,-12.2 l 0,-13 c 0,-6.6 -5.1,-11.8 -11.7,-11.8 z"
         inkscape:connector-curvature="0"
         style="fill:#2f93ed" /><path
         id="XMLID_43_"
         class="st2"
         d="m 352.2,210 -93.2,0 0,-93.8 c 0,-6.6 -5.7,-12.2 -12.3,-12.2 l -13,0 c -6.6,0 -11.7,5.6 -11.7,12.2 l 0,93.8 -93.8,0 c -6.6,0 -12.2,5.1 -12.2,11.7 l 0,13 c 0,6.6 5.6,12.3 12.2,12.3 l 93.8,0 0,93.2 c 0,6.6 5.1,11.8 11.7,11.8 l 13,0 c 6.6,0 12.3,-5.2 12.3,-11.8 l 0,-93.2 93.2,0 c 6.6,0 11.8,-5.7 11.8,-12.3 l 0,-13 c 0,-6.6 -5.2,-11.7 -11.8,-11.7 z"
         inkscape:connector-curvature="0"
         style="fill:#2f93ed" /><path
         id="XMLID_42_"
         class="st2"
         d="m 355,213 -93,0 0,-93.9 c 0,-6.6 -5.8,-12.1 -12.4,-12.1 l -13,0 c -6.6,0 -11.6,5.5 -11.6,12.1 l 0,93.9 -93.9,0 c -6.6,0 -12.1,4.9 -12.1,11.5 l 0,13 c 0,6.6 5.5,12.5 12.1,12.5 l 93.9,0 0,93 c 0,6.6 5,12 11.6,12 l 13,0 c 6.6,0 12.4,-5.4 12.4,-12 l 0,-93 93,0 c 6.6,0 12,-5.9 12,-12.5 l 0,-13 c 0,-6.6 -5.4,-11.5 -12,-11.5 z"
         inkscape:connector-curvature="0"
         style="fill:#2f93ed" /><path
         id="XMLID_41_"
         class="st2"
         d="m 357.9,216 -92.9,0 0,-94.1 c 0,-6.6 -6,-11.9 -12.6,-11.9 l -13,0 c -6.6,0 -11.4,5.3 -11.4,11.9 l 0,94.1 -94.1,0 c -6.6,0 -11.9,4.8 -11.9,11.4 l 0,13 c 0,6.6 5.3,12.6 11.9,12.6 l 94.1,0 0,92.9 c 0,6.6 4.8,12.1 11.4,12.1 l 13,0 c 6.6,0 12.6,-5.5 12.6,-12.1 l 0,-92.9 92.9,0 c 6.6,0 12.1,-6 12.1,-12.6 l 0,-13 c 0,-6.6 -5.5,-11.4 -12.1,-11.4 z"
         inkscape:connector-curvature="0"
         style="fill:#2f93ed" /><path
         id="XMLID_40_"
         class="st2"
         d="m 360.7,219 -92.7,0 0,-94.2 c 0,-6.6 -6.1,-11.8 -12.7,-11.8 l -13,0 c -6.6,0 -11.3,5.2 -11.3,11.8 l 0,94.2 -94.2,0 c -6.6,0 -11.8,4.6 -11.8,11.2 l 0,13 c 0,6.6 5.2,12.8 11.8,12.8 l 94.2,0 0,92.7 c 0,6.6 4.7,12.3 11.3,12.3 l 13,0 c 6.6,0 12.7,-5.7 12.7,-12.3 l 0,-92.7 92.7,0 c 6.6,0 12.3,-6.2 12.3,-12.8 l 0,-13 c 0,-6.6 -5.7,-11.2 -12.3,-11.2 z"
         inkscape:connector-curvature="0"
         style="fill:#2f93ed" /><path
         id="XMLID_39_"
         class="st2"
         d="m 363.6,222 -92.6,0 0,-94.4 C 271,121 264.7,116 258.1,116 l -13,0 c -6.6,0 -11.1,5 -11.1,11.6 l 0,94.4 -94.4,0 c -6.6,0 -11.6,4.5 -11.6,11.1 l 0,13 c 0,6.6 5,12.9 11.6,12.9 l 94.4,0 0,92.6 c 0,6.6 4.5,12.4 11.1,12.4 l 13,0 c 6.6,0 12.9,-5.8 12.9,-12.4 l 0,-92.6 92.6,0 c 6.6,0 12.4,-6.3 12.4,-12.9 l 0,-13 c 0,-6.6 -5.8,-11.1 -12.4,-11.1 z"
         inkscape:connector-curvature="0"
         style="fill:#2f93ed" /><path
         id="XMLID_38_"
         class="st2"
         d="m 366.4,224 -93.4,0 0,-93.6 c 0,-6.6 -5.5,-12.4 -12.1,-12.4 l -13,0 c -6.6,0 -11.9,5.8 -11.9,12.4 l 0,93.6 -93.5,0 c -6.6,0 -12.5,5.3 -12.5,11.9 l 0,13 c 0,6.6 5.9,12.1 12.5,12.1 l 93.5,0 0,93.4 c 0,6.6 5.3,11.6 11.9,11.6 l 13,0 c 6.6,0 12.1,-5 12.1,-11.6 l 0,-93.4 93.4,0 c 6.6,0 11.6,-5.5 11.6,-12.1 l 0,-13 c 0,-6.6 -5,-11.9 -11.6,-11.9 z"
         inkscape:connector-curvature="0"
         style="fill:#2f93ed" /><path
         id="XMLID_37_"
         class="st2"
         d="m 369.3,227 -93.3,0 0,-93.7 c 0,-6.6 -5.6,-12.3 -12.2,-12.3 l -13,0 c -6.6,0 -11.8,5.7 -11.8,12.3 l 0,93.7 -93.7,0 c -6.6,0 -12.3,5.2 -12.3,11.8 l 0,13 c 0,6.6 5.7,12.2 12.3,12.2 l 93.7,0 0,93.2 c 0,6.6 5.2,11.8 11.8,11.8 l 13,0 c 6.6,0 12.2,-5.2 12.2,-11.8 l 0,-93.2 93.3,0 c 6.6,0 11.7,-5.6 11.7,-12.2 l 0,-13 c 0,-6.6 -5.1,-11.8 -11.7,-11.8 z"
         inkscape:connector-curvature="0"
         style="fill:#2f93ed" /><path
         id="XMLID_36_"
         class="st2"
         d="m 372.1,230 -93.1,0 0,-93.9 c 0,-6.6 -5.8,-12.1 -12.4,-12.1 l -13,0 c -6.6,0 -11.6,5.5 -11.6,12.1 l 0,93.9 -93.8,0 c -6.6,0 -12.2,5 -12.2,11.6 l 0,13 c 0,6.6 5.6,12.4 12.2,12.4 l 93.8,0 0,93.1 c 0,6.6 5,11.9 11.6,11.9 l 13,0 c 6.6,0 12.4,-5.3 12.4,-11.9 l 0,-93.1 93.1,0 c 6.6,0 11.9,-5.8 11.9,-12.4 l 0,-13 C 384,235 378.7,230 372.1,230 Z"
         inkscape:connector-curvature="0"
         style="fill:#2f93ed" /><path
         id="XMLID_35_"
         class="st2"
         d="m 375,233 -93,0 0,-94 c 0,-6.6 -5.9,-12 -12.5,-12 l -13,0 c -6.6,0 -11.5,5.4 -11.5,12 l 0,94 -94,0 c -6.6,0 -12,4.9 -12,11.5 l 0,13 c 0,6.6 5.4,12.5 12,12.5 l 94,0 0,92.9 c 0,6.6 4.9,12.1 11.5,12.1 l 13,0 c 6.6,0 12.5,-5.5 12.5,-12.1 l 0,-92.9 93,0 c 6.6,0 12,-5.9 12,-12.5 l 0,-13 c 0,-6.6 -5.4,-11.5 -12,-11.5 z"
         inkscape:connector-curvature="0"
         style="fill:#2f93ed" /><path
         id="XMLID_34_"
         class="st2"
         d="m 377.8,236 -92.8,0 0,-94.2 c 0,-6.6 -6.1,-11.8 -12.7,-11.8 l -13,0 c -6.6,0 -11.3,5.2 -11.3,11.8 l 0,94.2 -94.1,0 c -6.6,0 -11.9,4.7 -11.9,11.3 l 0,13 c 0,6.6 5.3,12.7 11.9,12.7 l 94.1,0 0,92.8 c 0,6.6 4.7,12.2 11.3,12.2 l 13,0 c 6.6,0 12.7,-5.6 12.7,-12.2 l 0,-92.8 92.8,0 c 6.6,0 12.2,-6.1 12.2,-12.7 l 0,-13 c 0,-6.6 -5.6,-11.3 -12.2,-11.3 z"
         inkscape:connector-curvature="0"
         style="fill:#2f93ed" /><path
         id="XMLID_33_"
         class="st2"
         d="m 380.7,239 -92.7,0 0,-94.3 c 0,-6.6 -6.2,-11.7 -12.8,-11.7 l -13,0 c -6.6,0 -11.2,5.1 -11.2,11.7 l 0,94.3 -94.3,0 c -6.6,0 -11.7,4.6 -11.7,11.2 l 0,13 c 0,6.6 5.1,12.8 11.7,12.8 l 94.3,0 0,92.6 c 0,6.6 4.6,12.4 11.2,12.4 l 13,0 c 6.6,0 12.8,-5.8 12.8,-12.4 l 0,-92.6 92.7,0 c 6.6,0 12.3,-6.2 12.3,-12.8 l 0,-13 c 0,-6.6 -5.7,-11.2 -12.3,-11.2 z"
         inkscape:connector-curvature="0"
         style="fill:#2f93ed" /><path
         id="XMLID_32_"
         class="st2"
         d="m 383.5,242 -92.5,0 0,-94.5 c 0,-6.6 -6.4,-11.5 -13,-11.5 l -13,0 c -6.6,0 -11,4.9 -11,11.5 l 0,94.5 -94.4,0 c -6.6,0 -11.6,4.4 -11.6,11 l 0,13 c 0,6.6 5,13 11.6,13 l 94.4,0 0,92.5 c 0,6.6 4.4,12.5 11,12.5 l 13,0 c 6.6,0 13,-5.9 13,-12.5 l 0,-92.5 92.5,0 c 6.6,0 12.5,-6.4 12.5,-13 l 0,-13 c 0,-6.6 -5.9,-11 -12.5,-11 z"
         inkscape:connector-curvature="0"
         style="fill:#2f93ed" /><path
         id="XMLID_31_"
         class="st2"
         d="m 386.4,244 -93.4,0 0,-93.6 c 0,-6.6 -5.5,-12.4 -12.1,-12.4 l -13,0 c -6.6,0 -11.9,5.8 -11.9,12.4 l 0,93.6 -93.6,0 c -6.6,0 -12.4,5.3 -12.4,11.9 l 0,13 c 0,6.6 5.8,12.1 12.4,12.1 l 93.6,0 0,93.3 c 0,6.6 5.3,11.7 11.9,11.7 l 13,0 c 6.6,0 12.1,-5.1 12.1,-11.7 l 0,-93.3 93.4,0 c 6.6,0 11.6,-5.5 11.6,-12.1 l 0,-13 c 0,-6.6 -5,-11.9 -11.6,-11.9 z"
         inkscape:connector-curvature="0"
         style="fill:#2f93ed" /><path
         id="XMLID_30_"
         class="st2"
         d="m 389.2,247 -93.2,0 0,-93.8 c 0,-6.6 -5.7,-12.2 -12.3,-12.2 l -13,0 c -6.6,0 -11.7,5.6 -11.7,12.2 l 0,93.8 -93.7,0 c -6.6,0 -12.3,5.1 -12.3,11.7 l 0,13 c 0,6.6 5.7,12.3 12.3,12.3 l 93.7,0 0,93.2 c 0,6.6 5.1,11.8 11.7,11.8 l 13,0 c 6.6,0 12.3,-5.2 12.3,-11.8 l 0,-93.2 93.2,0 c 6.6,0 11.8,-5.7 11.8,-12.3 l 0,-13 c 0,-6.6 -5.2,-11.7 -11.8,-11.7 z"
         inkscape:connector-curvature="0"
         style="fill:#2f93ed" /><path
         id="XMLID_29_"
         class="st2"
         d="m 392.1,250 -93.1,0 0,-93.9 c 0,-6.6 -5.8,-12.1 -12.4,-12.1 l -13,0 c -6.6,0 -11.6,5.5 -11.6,12.1 l 0,93.9 -93.9,0 c -6.6,0 -12.1,5 -12.1,11.6 l 0,13 c 0,6.6 5.5,12.4 12.1,12.4 l 93.9,0 0,93 c 0,6.6 5,12 11.6,12 l 13,0 c 6.6,0 12.4,-5.4 12.4,-12 l 0,-93 93.1,0 c 6.6,0 11.9,-5.8 11.9,-12.4 l 0,-13 C 404,255 398.7,250 392.1,250 Z"
         inkscape:connector-curvature="0"
         style="fill:#2f93ed" /><path
         id="XMLID_28_"
         class="st2"
         d="m 394.9,253 -92.9,0 0,-94.1 c 0,-6.6 -6,-11.9 -12.6,-11.9 l -13,0 c -6.6,0 -11.4,5.3 -11.4,11.9 l 0,94.1 -94.1,0 c -6.6,0 -11.9,4.8 -11.9,11.4 l 0,13 c 0,6.6 5.3,12.6 11.9,12.6 l 94.1,0 0,92.9 c 0,6.6 4.8,12.1 11.4,12.1 l 13,0 c 6.6,0 12.6,-5.5 12.6,-12.1 l 0,-92.9 92.9,0 c 6.6,0 12.1,-6 12.1,-12.6 l 0,-13 c 0,-6.6 -5.5,-11.4 -12.1,-11.4 z"
         inkscape:connector-curvature="0"
         style="fill:#2f93ed" /><path
         id="XMLID_27_"
         class="st2"
         d="m 397.7,256 -92.7,0 0,-94.2 c 0,-6.6 -6.1,-11.8 -12.7,-11.8 l -13,0 c -6.6,0 -11.3,5.2 -11.3,11.8 l 0,94.2 -94.2,0 c -6.6,0 -11.8,4.6 -11.8,11.2 l 0,13 c 0,6.6 5.2,12.8 11.8,12.8 l 94.2,0 0,92.7 c 0,6.6 4.7,12.3 11.3,12.3 l 13,0 c 6.6,0 12.7,-5.7 12.7,-12.3 l 0,-92.7 92.7,0 c 6.6,0 12.3,-6.2 12.3,-12.8 l 0,-13 c 0,-6.6 -5.7,-11.2 -12.3,-11.2 z"
         inkscape:connector-curvature="0"
         style="fill:#2f93ed" /><path
         id="XMLID_26_"
         class="st2"
         d="m 400.6,259 -92.6,0 0,-94.4 C 308,158 301.7,153 295.1,153 l -13,0 c -6.6,0 -11.1,5 -11.1,11.6 l 0,94.4 -94.4,0 c -6.6,0 -11.6,4.5 -11.6,11.1 l 0,13 c 0,6.6 5,12.9 11.6,12.9 l 94.4,0 0,92.6 c 0,6.6 4.5,12.4 11.1,12.4 l 13,0 c 6.6,0 12.9,-5.8 12.9,-12.4 l 0,-92.6 92.6,0 c 6.6,0 12.4,-6.3 12.4,-12.9 l 0,-13 c 0,-6.6 -5.8,-11.1 -12.4,-11.1 z"
         inkscape:connector-curvature="0"
         style="fill:#2f93ed" /><path
         id="XMLID_25_"
         class="st2"
         d="m 403.4,261 -93.4,0 0,-93.5 c 0,-6.6 -5.4,-12.5 -12,-12.5 l -13,0 c -6.6,0 -12,5.9 -12,12.5 l 0,93.5 -93.5,0 c -6.6,0 -12.5,5.3 -12.5,11.9 l 0,13 c 0,6.6 5.9,12.1 12.5,12.1 l 93.5,0 0,93.4 c 0,6.6 5.4,11.6 12,11.6 l 13,0 c 6.6,0 12,-5 12,-11.6 l 0,-93.4 93.4,0 c 6.6,0 11.6,-5.5 11.6,-12.1 l 0,-13 c 0,-6.6 -5,-11.9 -11.6,-11.9 z"
         inkscape:connector-curvature="0"
         style="fill:#2f93ed" /><path
         id="XMLID_24_"
         class="st2"
         d="m 406.3,264 -93.3,0 0,-93.7 c 0,-6.6 -5.6,-12.3 -12.2,-12.3 l -13,0 c -6.6,0 -11.8,5.7 -11.8,12.3 l 0,93.7 -93.7,0 c -6.6,0 -12.3,5.2 -12.3,11.8 l 0,13 c 0,6.6 5.7,12.2 12.3,12.2 l 93.7,0 0,93.3 c 0,6.6 5.2,11.7 11.8,11.7 l 13,0 c 6.6,0 12.2,-5.1 12.2,-11.7 l 0,-93.3 93.3,0 c 6.6,0 11.7,-5.6 11.7,-12.2 l 0,-13 c 0,-6.6 -5.1,-11.8 -11.7,-11.8 z"
         inkscape:connector-curvature="0"
         style="fill:#2f93ed" /><path
         id="XMLID_23_"
         class="st2"
         d="m 409.1,267 -93.1,0 0,-93.8 c 0,-6.6 -5.7,-12.2 -12.3,-12.2 l -13,0 c -6.6,0 -11.7,5.6 -11.7,12.2 l 0,93.8 -93.8,0 c -6.6,0 -12.2,5 -12.2,11.6 l 0,13 c 0,6.6 5.6,12.4 12.2,12.4 l 93.8,0 0,93.1 c 0,6.6 5.1,11.9 11.7,11.9 l 13,0 c 6.6,0 12.3,-5.3 12.3,-11.9 l 0,-93.1 93.1,0 c 6.6,0 11.9,-5.8 11.9,-12.4 l 0,-13 C 421,272 415.7,267 409.1,267 Z"
         inkscape:connector-curvature="0"
         style="fill:#2f93ed" /><path
         id="XMLID_22_"
         class="st2"
         d="m 412,270 -93,0 0,-94 c 0,-6.6 -5.9,-12 -12.5,-12 l -13,0 c -6.6,0 -11.5,5.4 -11.5,12 l 0,94 -94,0 c -6.6,0 -12,4.9 -12,11.5 l 0,13 c 0,6.6 5.4,12.5 12,12.5 l 94,0 0,93 c 0,6.6 4.9,12 11.5,12 l 13,0 c 6.6,0 12.5,-5.4 12.5,-12 l 0,-93 93,0 c 6.6,0 12,-5.9 12,-12.5 l 0,-13 c 0,-6.6 -5.4,-11.5 -12,-11.5 z"
         inkscape:connector-curvature="0"
         style="fill:#2f93ed" /><path
         id="XMLID_21_"
         class="st2"
         d="m 414.8,273 -92.8,0 0,-94.1 c 0,-6.6 -6,-11.9 -12.6,-11.9 l -13,0 c -6.6,0 -11.4,5.3 -11.4,11.9 l 0,94.1 -94.1,0 c -6.6,0 -11.9,4.7 -11.9,11.3 l 0,13 c 0,6.6 5.3,12.7 11.9,12.7 l 94.1,0 0,92.8 c 0,6.6 4.8,12.2 11.4,12.2 l 13,0 c 6.6,0 12.6,-5.6 12.6,-12.2 l 0,-92.8 92.8,0 c 6.6,0 12.2,-6.1 12.2,-12.7 l 0,-13 c 0,-6.6 -5.6,-11.3 -12.2,-11.3 z"
         inkscape:connector-curvature="0"
         style="fill:#2f93ed" /><path
         id="XMLID_20_"
         class="st2"
         d="m 417.7,276 -92.7,0 0,-94.3 c 0,-6.6 -6.2,-11.7 -12.8,-11.7 l -13,0 c -6.6,0 -11.2,5.1 -11.2,11.7 l 0,94.3 -94.3,0 c -6.6,0 -11.7,4.6 -11.7,11.2 l 0,13 c 0,6.6 5.1,12.8 11.7,12.8 l 94.3,0 0,92.7 c 0,6.6 4.6,12.3 11.2,12.3 l 13,0 c 6.6,0 12.8,-5.7 12.8,-12.3 l 0,-92.7 92.7,0 c 6.6,0 12.3,-6.2 12.3,-12.8 l 0,-13 c 0,-6.6 -5.7,-11.2 -12.3,-11.2 z"
         inkscape:connector-curvature="0"
         style="fill:#2f93ed" /><path
         id="XMLID_19_"
         class="st2"
         d="m 420.5,279 -92.5,0 0,-94.4 C 328,178 321.7,173 315.1,173 l -13,0 c -6.6,0 -11.1,5 -11.1,11.6 l 0,94.4 -94.4,0 c -6.6,0 -11.6,4.4 -11.6,11 l 0,13 c 0,6.6 5,13 11.6,13 l 94.4,0 0,92.5 c 0,6.6 4.5,12.5 11.1,12.5 l 13,0 c 6.6,0 12.9,-5.9 12.9,-12.5 l 0,-92.5 92.5,0 c 6.6,0 12.5,-6.4 12.5,-13 l 0,-13 c 0,-6.6 -5.9,-11 -12.5,-11 z"
         inkscape:connector-curvature="0"
         style="fill:#2f93ed" /><path
         id="XMLID_18_"
         class="st2"
         d="m 423.4,281 -93.4,0 0,-93.6 c 0,-6.6 -5.5,-12.4 -12.1,-12.4 l -13,0 c -6.6,0 -11.9,5.8 -11.9,12.4 l 0,93.6 -93.6,0 c -6.6,0 -12.4,5.3 -12.4,11.9 l 0,13 c 0,6.6 5.8,12.1 12.4,12.1 l 93.6,0 0,93.3 c 0,6.6 5.3,11.7 11.9,11.7 l 13,0 c 6.6,0 12.1,-5.1 12.1,-11.7 l 0,-93.3 93.4,0 c 6.6,0 11.6,-5.5 11.6,-12.1 l 0,-13 c 0,-6.6 -5,-11.9 -11.6,-11.9 z"
         inkscape:connector-curvature="0"
         style="fill:#2f93ed" /><path
         id="XMLID_17_"
         class="st2"
         d="m 426.2,284 -93.2,0 0,-93.8 c 0,-6.6 -5.7,-12.2 -12.3,-12.2 l -13,0 c -6.6,0 -11.7,5.6 -11.7,12.2 l 0,93.8 -93.7,0 c -6.6,0 -12.3,5.1 -12.3,11.7 l 0,13 c 0,6.6 5.7,12.3 12.3,12.3 l 93.7,0 0,93.2 c 0,6.6 5.1,11.8 11.7,11.8 l 13,0 c 6.6,0 12.3,-5.2 12.3,-11.8 l 0,-93.2 93.2,0 c 6.6,0 11.8,-5.7 11.8,-12.3 l 0,-13 c 0,-6.6 -5.2,-11.7 -11.8,-11.7 z"
         inkscape:connector-curvature="0"
         style="fill:#2f93ed" /><path
         id="XMLID_16_"
         class="st2"
         d="m 429.1,287 -93.1,0 0,-93.9 c 0,-6.6 -5.8,-12.1 -12.4,-12.1 l -13,0 c -6.6,0 -11.6,5.5 -11.6,12.1 l 0,93.9 -93.9,0 c -6.6,0 -12.1,5 -12.1,11.6 l 0,13 c 0,6.6 5.5,12.4 12.1,12.4 l 93.9,0 0,93 c 0,6.6 5,12 11.6,12 l 13,0 c 6.6,0 12.4,-5.4 12.4,-12 l 0,-93 93.1,0 c 6.6,0 11.9,-5.8 11.9,-12.4 l 0,-13 C 441,292 435.7,287 429.1,287 Z"
         inkscape:connector-curvature="0"
         style="fill:#2f93ed" /><path
         id="XMLID_15_"
         class="st2"
         d="m 431.9,290 -92.9,0 0,-94.1 c 0,-6.6 -6,-11.9 -12.6,-11.9 l -13,0 c -6.6,0 -11.4,5.3 -11.4,11.9 l 0,94.1 -94,0 c -6.6,0 -12,4.8 -12,11.4 l 0,13 c 0,6.6 5.4,12.6 12,12.6 l 94,0 0,92.9 c 0,6.6 4.8,12.1 11.4,12.1 l 13,0 c 6.6,0 12.6,-5.5 12.6,-12.1 l 0,-92.9 92.9,0 c 6.6,0 12.1,-6 12.1,-12.6 l 0,-13 c 0,-6.6 -5.5,-11.4 -12.1,-11.4 z"
         inkscape:connector-curvature="0"
         style="fill:#2f93ed" /><path
         id="XMLID_14_"
         class="st2"
         d="m 434.8,293 -92.8,0 0,-94.2 c 0,-6.6 -6.1,-11.8 -12.7,-11.8 l -13,0 c -6.6,0 -11.3,5.2 -11.3,11.8 l 0,94.2 -94.2,0 c -6.6,0 -11.8,4.7 -11.8,11.3 l 0,13 c 0,6.6 5.2,12.7 11.8,12.7 l 94.2,0 0,92.7 c 0,6.6 4.7,12.3 11.3,12.3 l 13,0 c 6.6,0 12.7,-5.7 12.7,-12.3 l 0,-92.7 92.8,0 c 6.6,0 12.2,-6.1 12.2,-12.7 l 0,-13 c 0,-6.6 -5.6,-11.3 -12.2,-11.3 z"
         inkscape:connector-curvature="0"
         style="fill:#2f93ed" /><path
         id="XMLID_13_"
         class="st2"
         d="m 437.6,296 -92.6,0 0,-94.4 C 345,195 338.7,190 332.1,190 l -13,0 c -6.6,0 -11.1,5 -11.1,11.6 l 0,94.4 -94.3,0 c -6.6,0 -11.7,4.5 -11.7,11.1 l 0,13 c 0,6.6 5.1,12.9 11.7,12.9 l 94.3,0 0,92.6 c 0,6.6 4.5,12.4 11.1,12.4 l 13,0 c 6.6,0 12.9,-5.8 12.9,-12.4 l 0,-92.6 92.6,0 c 6.6,0 12.4,-6.3 12.4,-12.9 l 0,-13 c 0,-6.6 -5.8,-11.1 -12.4,-11.1 z"
         inkscape:connector-curvature="0"
         style="fill:#2f93ed" /><path
         id="XMLID_12_"
         class="st2"
         d="m 440.5,298 -93.5,0 0,-93.5 c 0,-6.6 -5.4,-12.5 -12,-12.5 l -13,0 c -6.6,0 -12,5.9 -12,12.5 l 0,93.5 -93.5,0 c -6.6,0 -12.5,5.4 -12.5,12 l 0,13 c 0,6.6 5.9,12 12.5,12 l 93.5,0 0,93.4 c 0,6.6 5.4,11.6 12,11.6 l 13,0 c 6.6,0 12,-5 12,-11.6 l 0,-93.4 93.5,0 c 6.6,0 11.5,-5.4 11.5,-12 l 0,-13 c 0,-6.6 -4.9,-12 -11.5,-12 z"
         inkscape:connector-curvature="0"
         style="fill:#2f93ed" /><path
         id="XMLID_11_"
         class="st2"
         d="m 443.3,301 -93.3,0 0,-93.7 c 0,-6.6 -5.6,-12.3 -12.2,-12.3 l -13,0 c -6.6,0 -11.8,5.7 -11.8,12.3 l 0,93.7 -93.6,0 c -6.6,0 -12.4,5.2 -12.4,11.8 l 0,13 c 0,6.6 5.8,12.2 12.4,12.2 l 93.6,0 0,93.3 c 0,6.6 5.2,11.7 11.8,11.7 l 13,0 c 6.6,0 12.2,-5.1 12.2,-11.7 l 0,-93.3 93.3,0 c 6.6,0 11.7,-5.6 11.7,-12.2 l 0,-13 c 0,-6.6 -5.1,-11.8 -11.7,-11.8 z"
         inkscape:connector-curvature="0"
         style="fill:#2f93ed" /><path
         id="XMLID_10_"
         class="st2"
         d="m 446.2,304 -93.2,0 0,-93.8 c 0,-6.6 -5.7,-12.2 -12.3,-12.2 l -13,0 c -6.6,0 -11.7,5.6 -11.7,12.2 l 0,93.8 -93.8,0 c -6.6,0 -12.2,5.1 -12.2,11.7 l 0,13 c 0,6.6 5.6,12.3 12.2,12.3 l 93.8,0 0,93.1 c 0,6.6 5.1,11.9 11.7,11.9 l 13,0 c 6.6,0 12.3,-5.3 12.3,-11.9 l 0,-93.1 93.2,0 c 6.6,0 11.8,-5.7 11.8,-12.3 l 0,-13 c 0,-6.6 -5.2,-11.7 -11.8,-11.7 z"
         inkscape:connector-curvature="0"
         style="fill:#2f93ed" /><path
         id="XMLID_8_"
         class="st2"
         d="m 449,307 -93,0 0,-94 c 0,-6.6 -5.9,-12 -12.5,-12 l -13,0 c -6.6,0 -11.5,5.4 -11.5,12 l 0,94 -93.9,0 c -6.6,0 -12.1,4.9 -12.1,11.5 l 0,13 c 0,6.6 5.5,12.5 12.1,12.5 l 93.9,0 0,93 c 0,6.6 4.9,12 11.5,12 l 13,0 c 6.6,0 12.5,-5.4 12.5,-12 l 0,-93 93,0 c 6.6,0 12,-5.9 12,-12.5 l 0,-13 c 0,-6.6 -5.4,-11.5 -12,-11.5 z"
         inkscape:connector-curvature="0"
         style="fill:#2f93ed" /></g></g><path
     id="XMLID_4_"
     class="st3"
     d="m 175.77807,87.82138 -62.92286,0 0,-63.59945 c 0,-4.4655 -3.99188,-8.11908 -8.45738,-8.11908 l -8.795667,0 c -4.46549,0 -7.78078,3.65358 -7.78078,8.11908 l 0,63.59945 -63.531801,0 c -4.465494,0 -8.186739,3.31529 -8.186739,7.78079 l 0,8.79567 c 0,4.46549 3.721245,8.45737 8.186739,8.45737 l 63.531801,0 0,62.92287 c 0,4.46549 3.31529,8.11908 7.78078,8.11908 l 8.795667,0 c 4.4655,0 8.45738,-3.65359 8.45738,-8.11908 l 0,-62.92287 62.92286,0 c 4.4655,0 8.11908,-3.99188 8.11908,-8.45737 l 0,-8.79567 c 0,-4.4655 -3.65358,-7.78079 -8.11908,-7.78079 z"
     inkscape:connector-curvature="0"
     style="fill:#efef2e" /></svg>