<?xml version="1.0" encoding="UTF-8" standalone="no"?>
<!-- Generator: Adobe Illustrator 19.0.0, SVG Export Plug-In . SVG Version: 6.00 Build 0)  -->

<svg
   xmlns:dc="http://purl.org/dc/elements/1.1/"
   xmlns:cc="http://creativecommons.org/ns#"
   xmlns:rdf="http://www.w3.org/1999/02/22-rdf-syntax-ns#"
   xmlns:svg="http://www.w3.org/2000/svg"
   xmlns="http://www.w3.org/2000/svg"
   xmlns:sodipodi="http://sodipodi.sourceforge.net/DTD/sodipodi-0.dtd"
   xmlns:inkscape="http://www.inkscape.org/namespaces/inkscape"
   version="1.1"
   id="Layer_1"
   x="0px"
   y="0px"
   viewBox="0 0 200 200"
   xml:space="preserve"
   inkscape:version="0.91 r13725"
   sodipodi:docname="noProfile.svg"
   width="200"
   height="200"><metadata
     id="metadata14"><rdf:RDF><cc:Work
         rdf:about=""><dc:format>image/svg+xml</dc:format><dc:type
           rdf:resource="http://purl.org/dc/dcmitype/StillImage" /><dc:title></dc:title></cc:Work></rdf:RDF></metadata><defs
     id="defs12" /><sodipodi:namedview
     pagecolor="#ffffff"
     bordercolor="#666666"
     borderopacity="1"
     objecttolerance="10"
     gridtolerance="10"
     guidetolerance="10"
     inkscape:pageopacity="0"
     inkscape:pageshadow="2"
     inkscape:window-width="1536"
     inkscape:window-height="801"
     id="namedview10"
     showgrid="false"
     inkscape:zoom="1.2125"
     inkscape:cx="281.00906"
     inkscape:cy="292.39425"
     inkscape:window-x="-8"
     inkscape:window-y="-8"
     inkscape:window-maximized="1"
     inkscape:current-layer="Layer_1" /><style
     type="text/css"
     id="style3">
	.st0{fill:#BFB0B0;}
	.st1{fill:#FFFFFF;}
</style><rect
     id="XMLID_1_"
     x="0"
     y="0"
     class="st0"
     width="200"
     height="200"
     style="fill:#bfb0b0" /><path
     id="XMLID_6_"
     class="st1"
     d="m 150.61856,157.73196 -102.886601,0 c -6.804124,0 -12.680413,5.36082 -12.680413,12.16495 l 0,30.10309 127.835054,0 0,-30.10309 c 0,-6.80413 -5.46392,-12.16495 -12.26804,-12.16495 z"
     inkscape:connector-curvature="0"
     style="fill:#ffffff" /><path
     id="XMLID_4_"
     class="st1"
     d="m 143.29897,100.10309 c 0,23.71134 -19.17526,42.8866 -42.8866,42.8866 -23.711339,0 -42.886597,-19.17526 -42.886597,-42.8866 0,-23.71134 19.175258,-42.8866 42.886597,-42.8866 23.71134,0 42.8866,19.17526 42.8866,42.8866 z"
     inkscape:connector-curvature="0"
     style="fill:#ffffff" /><g
     id="XMLID_5_"
     transform="matrix(1.0309278,0,0,1.0309278,-358.76289,-79.38144)"><path
       id="XMLID_7_"
       class="st0"
       d="m 441.9,181.7 c 0,-0.6 0,-1 0,-1.3 0,-1.7 0.2,-3.1 0.7,-4.3 0.3,-0.9 0.9,-1.8 1.7,-2.7 0.6,-0.7 1.6,-1.7 3,-2.9 1.4,-1.2 2.4,-2.3 2.8,-3.1 0.4,-0.8 0.7,-1.6 0.7,-2.5 0,-1.6 -0.6,-3.1 -1.9,-4.3 -1.3,-1.2 -2.9,-1.9 -4.7,-1.9 -1.8,0 -3.3,0.6 -4.5,1.7 -1.2,1.1 -2,2.9 -2.4,5.3 l -4.3,-0.5 c 0.4,-3.2 1.6,-5.7 3.5,-7.4 1.9,-1.7 4.5,-2.6 7.7,-2.6 3.4,0 6,0.9 8,2.7 2,1.8 3,4 3,6.6 0,1.5 -0.4,2.9 -1.1,4.1 -0.7,1.2 -2.1,2.8 -4.1,4.6 -1.4,1.2 -2.3,2.1 -2.7,2.7 -0.4,0.6 -0.7,1.2 -0.9,2 -0.2,0.8 -0.3,2 -0.4,3.7 l -4.1,0 z m -0.3,8.5 0,-4.8 4.8,0 0,4.8 -4.8,0 z"
       inkscape:connector-curvature="0"
       style="fill:#bfb0b0" /></g></svg>